<?xml version="1.0" encoding="UTF-8" standalone="no"?>
<!DOCTYPE svg PUBLIC "-//W3C//DTD SVG 1.1//EN"
 "http://www.w3.org/Graphics/SVG/1.1/DTD/svg11.dtd">
<!-- Generated by graphviz version 2.40.1 (20161225.0304)
 -->
<!-- Title: dependencies Pages: 1 -->
<svg width="1061pt" height="211pt"
 viewBox="0.00 0.00 1061.00 211.00" xmlns="http://www.w3.org/2000/svg" xmlns:xlink="http://www.w3.org/1999/xlink">
<g id="graph0" class="graph" transform="scale(1 1) rotate(0) translate(4 207)">
<title>dependencies</title>
<polygon fill="#ffffff" stroke="transparent" points="-4,4 -4,-207 1057,-207 1057,4 -4,4"/>
<text text-anchor="start" x="505.5091" y="-42.4" font-family="sans-serif" font-weight="bold" font-size="14.00" fill="#000000">Legend</text>
<polygon fill="#ffffb3" stroke="transparent" points="292.5,-10 292.5,-30 312.5,-30 312.5,-10 292.5,-10"/>
<text text-anchor="start" x="316.129" y="-15.4" font-family="sans-serif" font-size="14.00" fill="#000000"> &#160;Declarations</text>
<polygon fill="#8dd3c7" stroke="transparent" points="405.5,-10 405.5,-30 425.5,-30 425.5,-10 405.5,-10"/>
<text text-anchor="start" x="429.2251" y="-15.4" font-family="sans-serif" font-size="14.00" fill="#000000"> &#160;Module</text>
<polygon fill="#80b1d3" stroke="transparent" points="491.5,-10 491.5,-30 511.5,-30 511.5,-10 491.5,-10"/>
<text text-anchor="start" x="515.2812" y="-15.4" font-family="sans-serif" font-size="14.00" fill="#000000"> &#160;Bootstrap</text>
<polygon fill="#fdb462" stroke="transparent" points="588.5,-10 588.5,-30 608.5,-30 608.5,-10 588.5,-10"/>
<text text-anchor="start" x="612.1732" y="-15.4" font-family="sans-serif" font-size="14.00" fill="#000000"> &#160;Providers</text>
<polygon fill="#fb8072" stroke="transparent" points="684.5,-10 684.5,-30 704.5,-30 704.5,-10 684.5,-10"/>
<text text-anchor="start" x="708.2258" y="-15.4" font-family="sans-serif" font-size="14.00" fill="#000000"> &#160;Exports</text>
<g id="clust1" class="cluster">
<title>cluster_UsersModule</title>
<polygon fill="none" stroke="#000000" stroke-dasharray="1,5" points="8,-70 8,-195 1045,-195 1045,-70 8,-70"/>
</g>
<g id="clust2" class="cluster">
<title>cluster_UsersModule_declarations</title>
<polygon fill="none" stroke="#000000" points="727,-78 727,-130 1037,-130 1037,-78 727,-78"/>
</g>
<g id="clust5" class="cluster">
<title>cluster_UsersModule_imports</title>
<polygon fill="none" stroke="#000000" points="16,-78 16,-130 719,-130 719,-78 16,-78"/>
</g>
<!-- AddUserComponent -->
<g id="node1" class="node">
<title>AddUserComponent</title>
<polygon fill="#ffffb3" stroke="#000000" points="1028.8655,-122 897.1345,-122 897.1345,-86 1028.8655,-86 1028.8655,-122"/>
<text text-anchor="middle" x="963" y="-99.8" font-family="Times,serif" font-size="14.00" fill="#000000">AddUserComponent</text>
</g>
<!-- UsersModule -->
<g id="node3" class="node">
<title>UsersModule</title>
<polygon fill="#8dd3c7" stroke="#000000" points="579.9218,-187 576.9218,-191 555.9218,-191 552.9218,-187 488.0782,-187 488.0782,-151 579.9218,-151 579.9218,-187"/>
<text text-anchor="middle" x="534" y="-164.8" font-family="Times,serif" font-size="14.00" fill="#000000">UsersModule</text>
</g>
<!-- AddUserComponent&#45;&gt;UsersModule -->
<g id="edge1" class="edge">
<title>AddUserComponent&#45;&gt;UsersModule</title>
<path fill="none" stroke="#000000" d="M963,-122.2921C963,-144.2057 963,-178 963,-178 963,-178 589.9105,-178 589.9105,-178"/>
<polygon fill="#000000" stroke="#000000" points="589.9105,-174.5001 579.9105,-178 589.9105,-181.5001 589.9105,-174.5001"/>
</g>
<!-- ViewUsersComponent -->
<g id="node2" class="node">
<title>ViewUsersComponent</title>
<polygon fill="#ffffb3" stroke="#000000" points="878.5226,-122 735.4774,-122 735.4774,-86 878.5226,-86 878.5226,-122"/>
<text text-anchor="middle" x="807" y="-99.8" font-family="Times,serif" font-size="14.00" fill="#000000">ViewUsersComponent</text>
</g>
<!-- ViewUsersComponent&#45;&gt;UsersModule -->
<g id="edge2" class="edge">
<title>ViewUsersComponent&#45;&gt;UsersModule</title>
<path fill="none" stroke="#000000" d="M807,-122.1061C807,-141.3391 807,-169 807,-169 807,-169 590.002,-169 590.002,-169"/>
<polygon fill="#000000" stroke="#000000" points="590.0021,-165.5001 580.002,-169 590.002,-172.5001 590.0021,-165.5001"/>
</g>
<!-- CommonModule -->
<g id="node4" class="node">
<title>CommonModule</title>
<polygon fill="#8dd3c7" stroke="#000000" points="710.6681,-122 707.6681,-126 686.6681,-126 683.6681,-122 599.3319,-122 599.3319,-86 710.6681,-86 710.6681,-122"/>
<text text-anchor="middle" x="655" y="-99.8" font-family="Times,serif" font-size="14.00" fill="#000000">CommonModule</text>
</g>
<!-- CommonModule&#45;&gt;UsersModule -->
<g id="edge3" class="edge">
<title>CommonModule&#45;&gt;UsersModule</title>
<path fill="none" stroke="#000000" d="M655,-122.027C655,-138.3976 655,-160 655,-160 655,-160 589.7449,-160 589.7449,-160"/>
<polygon fill="#000000" stroke="#000000" points="589.7449,-156.5001 579.7449,-160 589.7449,-163.5001 589.7449,-156.5001"/>
</g>
<!-- FormsModule -->
<g id="node5" class="node">
<title>FormsModule</title>
<polygon fill="#8dd3c7" stroke="#000000" points="581.8288,-122 578.8288,-126 557.8288,-126 554.8288,-122 486.1712,-122 486.1712,-86 581.8288,-86 581.8288,-122"/>
<text text-anchor="middle" x="534" y="-99.8" font-family="Times,serif" font-size="14.00" fill="#000000">FormsModule</text>
</g>
<!-- FormsModule&#45;&gt;UsersModule -->
<g id="edge4" class="edge">
<title>FormsModule&#45;&gt;UsersModule</title>
<path fill="none" stroke="#000000" d="M534,-122.1061C534,-122.1061 534,-140.991 534,-140.991"/>
<polygon fill="#000000" stroke="#000000" points="530.5001,-140.9909 534,-150.991 537.5001,-140.991 530.5001,-140.9909"/>
</g>
<!-- MaterialModule -->
<g id="node6" class="node">
<title>MaterialModule</title>
<polygon fill="#8dd3c7" stroke="#000000" points="468.4706,-122 465.4706,-126 444.4706,-126 441.4706,-122 361.5294,-122 361.5294,-86 468.4706,-86 468.4706,-122"/>
<text text-anchor="middle" x="415" y="-99.8" font-family="Times,serif" font-size="14.00" fill="#000000">MaterialModule</text>
</g>
<!-- MaterialModule&#45;&gt;UsersModule -->
<g id="edge5" class="edge">
<title>MaterialModule&#45;&gt;UsersModule</title>
<path fill="none" stroke="#000000" d="M415,-122.027C415,-138.3976 415,-160 415,-160 415,-160 477.9915,-160 477.9915,-160"/>
<polygon fill="#000000" stroke="#000000" points="477.9915,-163.5001 487.9915,-160 477.9915,-156.5001 477.9915,-163.5001"/>
</g>
<!-- BrowserAnimationsModule -->
<g id="node7" class="node">
<title>BrowserAnimationsModule</title>
<polygon fill="#8dd3c7" stroke="#000000" points="343.3019,-122 340.3019,-126 319.3019,-126 316.3019,-122 170.6981,-122 170.6981,-86 343.3019,-86 343.3019,-122"/>
<text text-anchor="middle" x="257" y="-99.8" font-family="Times,serif" font-size="14.00" fill="#000000">BrowserAnimationsModule</text>
</g>
<!-- BrowserAnimationsModule&#45;&gt;UsersModule -->
<g id="edge6" class="edge">
<title>BrowserAnimationsModule&#45;&gt;UsersModule</title>
<path fill="none" stroke="#000000" d="M257,-122.1061C257,-141.3391 257,-169 257,-169 257,-169 478.2591,-169 478.2591,-169"/>
<polygon fill="#000000" stroke="#000000" points="478.2591,-172.5001 488.2591,-169 478.259,-165.5001 478.2591,-172.5001"/>
</g>
<!-- AppRoutingModule -->
<g id="node8" class="node">
<title>AppRoutingModule</title>
<polygon fill="#8dd3c7" stroke="#000000" points="152.2744,-122 149.2744,-126 128.2744,-126 125.2744,-122 23.7256,-122 23.7256,-86 152.2744,-86 152.2744,-122"/>
<text text-anchor="middle" x="88" y="-99.8" font-family="Times,serif" font-size="14.00" fill="#000000">AppRoutingModule</text>
</g>
<!-- AppRoutingModule&#45;&gt;UsersModule -->
<g id="edge7" class="edge">
<title>AppRoutingModule&#45;&gt;UsersModule</title>
<path fill="none" stroke="#000000" d="M88,-122.2921C88,-144.2057 88,-178 88,-178 88,-178 477.95,-178 477.95,-178"/>
<polygon fill="#000000" stroke="#000000" points="477.95,-181.5001 487.95,-178 477.95,-174.5001 477.95,-181.5001"/>
</g>
</g>
</svg>
