<?xml version="1.0" encoding="UTF-8" standalone="no"?>
<!DOCTYPE svg PUBLIC "-//W3C//DTD SVG 1.1//EN"
 "http://www.w3.org/Graphics/SVG/1.1/DTD/svg11.dtd">
<!-- Generated by graphviz version 2.40.1 (20161225.0304)
 -->
<!-- Title: dependencies Pages: 1 -->
<svg width="3843pt" height="284pt"
 viewBox="0.00 0.00 3843.00 284.00" xmlns="http://www.w3.org/2000/svg" xmlns:xlink="http://www.w3.org/1999/xlink">
<g id="graph0" class="graph" transform="scale(1 1) rotate(0) translate(4 280)">
<title>dependencies</title>
<polygon fill="#ffffff" stroke="transparent" points="-4,4 -4,-280 3839,-280 3839,4 -4,4"/>
<text text-anchor="start" x="1896.5091" y="-42.4" font-family="sans-serif" font-weight="bold" font-size="14.00" fill="#000000">Legend</text>
<polygon fill="#ffffb3" stroke="transparent" points="1683.5,-10 1683.5,-30 1703.5,-30 1703.5,-10 1683.5,-10"/>
<text text-anchor="start" x="1707.129" y="-15.4" font-family="sans-serif" font-size="14.00" fill="#000000"> &#160;Declarations</text>
<polygon fill="#8dd3c7" stroke="transparent" points="1796.5,-10 1796.5,-30 1816.5,-30 1816.5,-10 1796.5,-10"/>
<text text-anchor="start" x="1820.2251" y="-15.4" font-family="sans-serif" font-size="14.00" fill="#000000"> &#160;Module</text>
<polygon fill="#80b1d3" stroke="transparent" points="1882.5,-10 1882.5,-30 1902.5,-30 1902.5,-10 1882.5,-10"/>
<text text-anchor="start" x="1906.2812" y="-15.4" font-family="sans-serif" font-size="14.00" fill="#000000"> &#160;Bootstrap</text>
<polygon fill="#fdb462" stroke="transparent" points="1979.5,-10 1979.5,-30 1999.5,-30 1999.5,-10 1979.5,-10"/>
<text text-anchor="start" x="2003.1732" y="-15.4" font-family="sans-serif" font-size="14.00" fill="#000000"> &#160;Providers</text>
<polygon fill="#fb8072" stroke="transparent" points="2075.5,-10 2075.5,-30 2095.5,-30 2095.5,-10 2075.5,-10"/>
<text text-anchor="start" x="2099.2258" y="-15.4" font-family="sans-serif" font-size="14.00" fill="#000000"> &#160;Exports</text>
<g id="clust1" class="cluster">
<title>cluster_AppModule</title>
<polygon fill="none" stroke="#000000" stroke-dasharray="1,5" points="8,-70 8,-268 3827,-268 3827,-70 8,-70"/>
</g>
<g id="clust2" class="cluster">
<title>cluster_AppModule_declarations</title>
<polygon fill="none" stroke="#000000" points="3555,-78 3555,-130 3819,-130 3819,-78 3555,-78"/>
</g>
<g id="clust5" class="cluster">
<title>cluster_AppModule_imports</title>
<polygon fill="none" stroke="#000000" points="668,-78 668,-130 3547,-130 3547,-78 668,-78"/>
</g>
<g id="clust6" class="cluster">
<title>cluster_AppModule_exports</title>
<polygon fill="none" stroke="#000000" points="1653,-208 1653,-260 1797,-260 1797,-208 1653,-208"/>
</g>
<g id="clust7" class="cluster">
<title>cluster_AppModule_bootstrap</title>
<polygon fill="none" stroke="#000000" points="1805,-208 1805,-260 1929,-260 1929,-208 1805,-208"/>
</g>
<g id="clust8" class="cluster">
<title>cluster_AppModule_providers</title>
<polygon fill="none" stroke="#000000" points="16,-78 16,-130 660,-130 660,-78 16,-78"/>
</g>
<!-- AppComponent -->
<g id="node1" class="node">
<title>AppComponent</title>
<polygon fill="#ffffb3" stroke="#000000" points="3810.9399,-122 3705.0601,-122 3705.0601,-86 3810.9399,-86 3810.9399,-122"/>
<text text-anchor="middle" x="3758" y="-99.8" font-family="Times,serif" font-size="14.00" fill="#000000">AppComponent</text>
</g>
<!-- AppModule -->
<g id="node3" class="node">
<title>AppModule</title>
<polygon fill="#8dd3c7" stroke="#000000" points="1837.6571,-187 1834.6571,-191 1813.6571,-191 1810.6571,-187 1754.3429,-187 1754.3429,-151 1837.6571,-151 1837.6571,-187"/>
<text text-anchor="middle" x="1796" y="-164.8" font-family="Times,serif" font-size="14.00" fill="#000000">AppModule</text>
</g>
<!-- AppComponent&#45;&gt;AppModule -->
<g id="edge1" class="edge">
<title>AppComponent&#45;&gt;AppModule</title>
<path fill="none" stroke="#000000" d="M3758,-122.3802C3758,-146.2785 3758,-185 3758,-185 3758,-185 1847.8868,-185 1847.8868,-185"/>
<polygon fill="#000000" stroke="#000000" points="1847.8869,-181.5001 1837.8868,-185 1847.8868,-188.5001 1847.8869,-181.5001"/>
</g>
<!-- DialogsComponent -->
<g id="node2" class="node">
<title>DialogsComponent</title>
<polygon fill="#ffffb3" stroke="#000000" points="3687.3795,-122 3562.6205,-122 3562.6205,-86 3687.3795,-86 3687.3795,-122"/>
<text text-anchor="middle" x="3625" y="-99.8" font-family="Times,serif" font-size="14.00" fill="#000000">DialogsComponent</text>
</g>
<!-- DialogsComponent&#45;&gt;AppModule -->
<g id="edge2" class="edge">
<title>DialogsComponent&#45;&gt;AppModule</title>
<path fill="none" stroke="#000000" d="M3625,-122.0908C3625,-145.1328 3625,-182 3625,-182 3625,-182 1848.0769,-182 1848.0769,-182"/>
<polygon fill="#000000" stroke="#000000" points="1848.077,-178.5001 1838.0769,-182 1848.0769,-185.5001 1848.077,-178.5001"/>
</g>
<!-- DialogsComponent  -->
<g id="node24" class="node">
<title>DialogsComponent </title>
<polygon fill="#fb8072" stroke="#000000" points="1789.38,-252 1660.62,-252 1660.62,-216 1789.38,-216 1789.38,-252"/>
<text text-anchor="middle" x="1725" y="-229.8" font-family="Times,serif" font-size="14.00" fill="#000000">DialogsComponent </text>
</g>
<!-- AppModule&#45;&gt;DialogsComponent  -->
<g id="edge23" class="edge">
<title>AppModule&#45;&gt;DialogsComponent </title>
<path fill="none" stroke="#000000" stroke-dasharray="5,2" d="M1771.6808,-187.1061C1771.6808,-187.1061 1771.6808,-205.991 1771.6808,-205.991"/>
<polygon fill="#000000" stroke="#000000" points="1768.1808,-205.9909 1771.6808,-215.991 1775.1808,-205.991 1768.1808,-205.9909"/>
</g>
<!-- AppComponent  -->
<g id="node25" class="node">
<title>AppComponent </title>
<polygon fill="#80b1d3" stroke="#000000" points="1921.439,-252 1812.561,-252 1812.561,-216 1921.439,-216 1921.439,-252"/>
<text text-anchor="middle" x="1867" y="-229.8" font-family="Times,serif" font-size="14.00" fill="#000000">AppComponent </text>
</g>
<!-- AppModule&#45;&gt;AppComponent  -->
<g id="edge24" class="edge">
<title>AppModule&#45;&gt;AppComponent </title>
<path fill="none" stroke="#000000" stroke-dasharray="1,5" d="M1825.1794,-187.1061C1825.1794,-187.1061 1825.1794,-205.991 1825.1794,-205.991"/>
<polygon fill="#000000" stroke="#000000" points="1821.6794,-205.9909 1825.1794,-215.991 1828.6794,-205.991 1821.6794,-205.9909"/>
</g>
<!-- BrowserModule -->
<g id="node4" class="node">
<title>BrowserModule</title>
<polygon fill="#8dd3c7" stroke="#000000" points="3539.4734,-122 3536.4734,-126 3515.4734,-126 3512.4734,-122 3432.5266,-122 3432.5266,-86 3539.4734,-86 3539.4734,-122"/>
<text text-anchor="middle" x="3486" y="-99.8" font-family="Times,serif" font-size="14.00" fill="#000000">BrowserModule</text>
</g>
<!-- BrowserModule&#45;&gt;AppModule -->
<g id="edge3" class="edge">
<title>BrowserModule&#45;&gt;AppModule</title>
<path fill="none" stroke="#000000" d="M3486,-122.1554C3486,-144.3519 3486,-179 3486,-179 3486,-179 1847.7755,-179 1847.7755,-179"/>
<polygon fill="#000000" stroke="#000000" points="1847.7755,-175.5001 1837.7755,-179 1847.7755,-182.5001 1847.7755,-175.5001"/>
</g>
<!-- HttpModule -->
<g id="node5" class="node">
<title>HttpModule</title>
<polygon fill="#8dd3c7" stroke="#000000" points="3414.4387,-122 3411.4387,-126 3390.4387,-126 3387.4387,-122 3329.5613,-122 3329.5613,-86 3414.4387,-86 3414.4387,-122"/>
<text text-anchor="middle" x="3372" y="-99.8" font-family="Times,serif" font-size="14.00" fill="#000000">HttpModule</text>
</g>
<!-- HttpModule&#45;&gt;AppModule -->
<g id="edge4" class="edge">
<title>HttpModule&#45;&gt;AppModule</title>
<path fill="none" stroke="#000000" d="M3372,-122.1686C3372,-143.498 3372,-176 3372,-176 3372,-176 1847.7482,-176 1847.7482,-176"/>
<polygon fill="#000000" stroke="#000000" points="1847.7483,-172.5001 1837.7482,-176 1847.7482,-179.5001 1847.7483,-172.5001"/>
</g>
<!-- AppRoutingModule -->
<g id="node6" class="node">
<title>AppRoutingModule</title>
<polygon fill="#8dd3c7" stroke="#000000" points="3311.2744,-122 3308.2744,-126 3287.2744,-126 3284.2744,-122 3182.7256,-122 3182.7256,-86 3311.2744,-86 3311.2744,-122"/>
<text text-anchor="middle" x="3247" y="-99.8" font-family="Times,serif" font-size="14.00" fill="#000000">AppRoutingModule</text>
</g>
<!-- AppRoutingModule&#45;&gt;AppModule -->
<g id="edge5" class="edge">
<title>AppRoutingModule&#45;&gt;AppModule</title>
<path fill="none" stroke="#000000" d="M3247,-122.0267C3247,-142.7672 3247,-174 3247,-174 3247,-174 1847.8608,-174 1847.8608,-174"/>
<polygon fill="#000000" stroke="#000000" points="1847.8608,-170.5001 1837.8608,-174 1847.8607,-177.5001 1847.8608,-170.5001"/>
</g>
<!-- AngularFireModule.initializeApp(args) -->
<g id="node7" class="node">
<title>AngularFireModule.initializeApp(args)</title>
<polygon fill="#8dd3c7" stroke="#000000" points="3164.7057,-122 3161.7057,-126 3140.7057,-126 3137.7057,-122 2927.2943,-122 2927.2943,-86 3164.7057,-86 3164.7057,-122"/>
<text text-anchor="middle" x="3046" y="-99.8" font-family="Times,serif" font-size="14.00" fill="#000000">AngularFireModule.initializeApp(args)</text>
</g>
<!-- AngularFireModule.initializeApp(args)&#45;&gt;AppModule -->
<g id="edge6" class="edge">
<title>AngularFireModule.initializeApp(args)&#45;&gt;AppModule</title>
<path fill="none" stroke="#000000" d="M3046,-122.308C3046,-142.1455 3046,-171 3046,-171 3046,-171 1847.9472,-171 1847.9472,-171"/>
<polygon fill="#000000" stroke="#000000" points="1847.9472,-167.5001 1837.9472,-171 1847.9471,-174.5001 1847.9472,-167.5001"/>
</g>
<!-- AngularFireDatabaseModule -->
<g id="node8" class="node">
<title>AngularFireDatabaseModule</title>
<polygon fill="#8dd3c7" stroke="#000000" points="2909.771,-122 2906.771,-126 2885.771,-126 2882.771,-122 2730.229,-122 2730.229,-86 2909.771,-86 2909.771,-122"/>
<text text-anchor="middle" x="2820" y="-99.8" font-family="Times,serif" font-size="14.00" fill="#000000">AngularFireDatabaseModule</text>
</g>
<!-- AngularFireDatabaseModule&#45;&gt;AppModule -->
<g id="edge7" class="edge">
<title>AngularFireDatabaseModule&#45;&gt;AppModule</title>
<path fill="none" stroke="#000000" d="M2820,-122.1686C2820,-141.0898 2820,-168 2820,-168 2820,-168 1847.7301,-168 1847.7301,-168"/>
<polygon fill="#000000" stroke="#000000" points="1847.7302,-164.5001 1837.7301,-168 1847.7301,-171.5001 1847.7302,-164.5001"/>
</g>
<!-- FlashMessagesModule -->
<g id="node9" class="node">
<title>FlashMessagesModule</title>
<polygon fill="#8dd3c7" stroke="#000000" points="2712.3047,-122 2709.3047,-126 2688.3047,-126 2685.3047,-122 2567.6953,-122 2567.6953,-86 2712.3047,-86 2712.3047,-122"/>
<text text-anchor="middle" x="2640" y="-99.8" font-family="Times,serif" font-size="14.00" fill="#000000">FlashMessagesModule</text>
</g>
<!-- FlashMessagesModule&#45;&gt;AppModule -->
<g id="edge8" class="edge">
<title>FlashMessagesModule&#45;&gt;AppModule</title>
<path fill="none" stroke="#000000" d="M2640,-122.302C2640,-140.2699 2640,-165 2640,-165 2640,-165 1847.8541,-165 1847.8541,-165"/>
<polygon fill="#000000" stroke="#000000" points="1847.8541,-161.5001 1837.8541,-165 1847.8541,-168.5001 1847.8541,-161.5001"/>
</g>
<!-- MaterialModule -->
<g id="node10" class="node">
<title>MaterialModule</title>
<polygon fill="#8dd3c7" stroke="#000000" points="2549.4706,-122 2546.4706,-126 2525.4706,-126 2522.4706,-122 2442.5294,-122 2442.5294,-86 2549.4706,-86 2549.4706,-122"/>
<text text-anchor="middle" x="2496" y="-99.8" font-family="Times,serif" font-size="14.00" fill="#000000">MaterialModule</text>
</g>
<!-- MaterialModule&#45;&gt;AppModule -->
<g id="edge9" class="edge">
<title>MaterialModule&#45;&gt;AppModule</title>
<path fill="none" stroke="#000000" d="M2496,-122.0225C2496,-139.3734 2496,-163 2496,-163 2496,-163 1847.6919,-163 1847.6919,-163"/>
<polygon fill="#000000" stroke="#000000" points="1847.6919,-159.5001 1837.6919,-163 1847.6918,-166.5001 1847.6919,-159.5001"/>
</g>
<!-- BrowserAnimationsModule -->
<g id="node11" class="node">
<title>BrowserAnimationsModule</title>
<polygon fill="#8dd3c7" stroke="#000000" points="2424.3019,-122 2421.3019,-126 2400.3019,-126 2397.3019,-122 2251.6981,-122 2251.6981,-86 2424.3019,-86 2424.3019,-122"/>
<text text-anchor="middle" x="2338" y="-99.8" font-family="Times,serif" font-size="14.00" fill="#000000">BrowserAnimationsModule</text>
</g>
<!-- BrowserAnimationsModule&#45;&gt;AppModule -->
<g id="edge10" class="edge">
<title>BrowserAnimationsModule&#45;&gt;AppModule</title>
<path fill="none" stroke="#000000" d="M2338,-122.027C2338,-138.3976 2338,-160 2338,-160 2338,-160 1848.0788,-160 1848.0788,-160"/>
<polygon fill="#000000" stroke="#000000" points="1848.0789,-156.5001 1838.0788,-160 1848.0788,-163.5001 1848.0789,-156.5001"/>
</g>
<!-- AngularFireAuthModule -->
<g id="node12" class="node">
<title>AngularFireAuthModule</title>
<polygon fill="#8dd3c7" stroke="#000000" points="2233.9678,-122 2230.9678,-126 2209.9678,-126 2206.9678,-122 2078.0322,-122 2078.0322,-86 2233.9678,-86 2233.9678,-122"/>
<text text-anchor="middle" x="2156" y="-99.8" font-family="Times,serif" font-size="14.00" fill="#000000">AngularFireAuthModule</text>
</g>
<!-- AngularFireAuthModule&#45;&gt;AppModule -->
<g id="edge11" class="edge">
<title>AngularFireAuthModule&#45;&gt;AppModule</title>
<path fill="none" stroke="#000000" d="M2156,-122.2396C2156,-137.5706 2156,-157 2156,-157 2156,-157 1848.0011,-157 1848.0011,-157"/>
<polygon fill="#000000" stroke="#000000" points="1848.0012,-153.5001 1838.0011,-157 1848.0011,-160.5001 1848.0012,-153.5001"/>
</g>
<!-- MdDialogModule -->
<g id="node13" class="node">
<title>MdDialogModule</title>
<polygon fill="#8dd3c7" stroke="#000000" points="2059.5968,-122 2056.5968,-126 2035.5968,-126 2032.5968,-122 1942.4032,-122 1942.4032,-86 2059.5968,-86 2059.5968,-122"/>
<text text-anchor="middle" x="2001" y="-99.8" font-family="Times,serif" font-size="14.00" fill="#000000">MdDialogModule</text>
</g>
<!-- MdDialogModule&#45;&gt;AppModule -->
<g id="edge12" class="edge">
<title>MdDialogModule&#45;&gt;AppModule</title>
<path fill="none" stroke="#000000" d="M2001,-122.0511C2001,-136.373 2001,-154 2001,-154 2001,-154 1847.9795,-154 1847.9795,-154"/>
<polygon fill="#000000" stroke="#000000" points="1847.9795,-150.5001 1837.9795,-154 1847.9795,-157.5001 1847.9795,-150.5001"/>
</g>
<!-- MdButtonModule -->
<g id="node14" class="node">
<title>MdButtonModule</title>
<polygon fill="#8dd3c7" stroke="#000000" points="1924.6123,-122 1921.6123,-126 1900.6123,-126 1897.6123,-122 1807.3877,-122 1807.3877,-86 1924.6123,-86 1924.6123,-122"/>
<text text-anchor="middle" x="1866" y="-99.8" font-family="Times,serif" font-size="14.00" fill="#000000">MdButtonModule</text>
</g>
<!-- MdButtonModule&#45;&gt;AppModule -->
<g id="edge13" class="edge">
<title>MdButtonModule&#45;&gt;AppModule</title>
<path fill="none" stroke="#000000" d="M1822.6361,-122.1061C1822.6361,-122.1061 1822.6361,-140.991 1822.6361,-140.991"/>
<polygon fill="#000000" stroke="#000000" points="1819.1361,-140.9909 1822.6361,-150.991 1826.1361,-140.991 1819.1361,-140.9909"/>
</g>
<!-- AllocationsModule -->
<g id="node15" class="node">
<title>AllocationsModule</title>
<polygon fill="#8dd3c7" stroke="#000000" points="1789.0926,-122 1786.0926,-126 1765.0926,-126 1762.0926,-122 1664.9074,-122 1664.9074,-86 1789.0926,-86 1789.0926,-122"/>
<text text-anchor="middle" x="1727" y="-99.8" font-family="Times,serif" font-size="14.00" fill="#000000">AllocationsModule</text>
</g>
<!-- AllocationsModule&#45;&gt;AppModule -->
<g id="edge14" class="edge">
<title>AllocationsModule&#45;&gt;AppModule</title>
<path fill="none" stroke="#000000" d="M1771.6091,-122.1061C1771.6091,-122.1061 1771.6091,-140.991 1771.6091,-140.991"/>
<polygon fill="#000000" stroke="#000000" points="1768.1091,-140.9909 1771.6091,-150.991 1775.1091,-140.991 1768.1091,-140.9909"/>
</g>
<!-- SemesterModule -->
<g id="node16" class="node">
<title>SemesterModule</title>
<polygon fill="#8dd3c7" stroke="#000000" points="1647.3627,-122 1644.3627,-126 1623.3627,-126 1620.3627,-122 1536.6373,-122 1536.6373,-86 1647.3627,-86 1647.3627,-122"/>
<text text-anchor="middle" x="1592" y="-99.8" font-family="Times,serif" font-size="14.00" fill="#000000">SemesterModule</text>
</g>
<!-- SemesterModule&#45;&gt;AppModule -->
<g id="edge15" class="edge">
<title>SemesterModule&#45;&gt;AppModule</title>
<path fill="none" stroke="#000000" d="M1592,-122.0511C1592,-136.373 1592,-154 1592,-154 1592,-154 1744.2253,-154 1744.2253,-154"/>
<polygon fill="#000000" stroke="#000000" points="1744.2253,-157.5001 1754.2253,-154 1744.2253,-150.5001 1744.2253,-157.5001"/>
</g>
<!-- CoursesModule -->
<g id="node17" class="node">
<title>CoursesModule</title>
<polygon fill="#8dd3c7" stroke="#000000" points="1518.1514,-122 1515.1514,-126 1494.1514,-126 1491.1514,-122 1413.8486,-122 1413.8486,-86 1518.1514,-86 1518.1514,-122"/>
<text text-anchor="middle" x="1466" y="-99.8" font-family="Times,serif" font-size="14.00" fill="#000000">CoursesModule</text>
</g>
<!-- CoursesModule&#45;&gt;AppModule -->
<g id="edge16" class="edge">
<title>CoursesModule&#45;&gt;AppModule</title>
<path fill="none" stroke="#000000" d="M1466,-122.2396C1466,-137.5706 1466,-157 1466,-157 1466,-157 1744.2053,-157 1744.2053,-157"/>
<polygon fill="#000000" stroke="#000000" points="1744.2053,-160.5001 1754.2053,-157 1744.2052,-153.5001 1744.2053,-160.5001"/>
</g>
<!-- ProfessorsModule -->
<g id="node18" class="node">
<title>ProfessorsModule</title>
<polygon fill="#8dd3c7" stroke="#000000" points="1395.8627,-122 1392.8627,-126 1371.8627,-126 1368.8627,-122 1278.1373,-122 1278.1373,-86 1395.8627,-86 1395.8627,-122"/>
<text text-anchor="middle" x="1337" y="-99.8" font-family="Times,serif" font-size="14.00" fill="#000000">ProfessorsModule</text>
</g>
<!-- ProfessorsModule&#45;&gt;AppModule -->
<g id="edge17" class="edge">
<title>ProfessorsModule&#45;&gt;AppModule</title>
<path fill="none" stroke="#000000" d="M1337,-122.027C1337,-138.3976 1337,-160 1337,-160 1337,-160 1744.05,-160 1744.05,-160"/>
<polygon fill="#000000" stroke="#000000" points="1744.05,-163.5001 1754.05,-160 1744.05,-156.5001 1744.05,-163.5001"/>
</g>
<!-- NavbarModule -->
<g id="node19" class="node">
<title>NavbarModule</title>
<polygon fill="#8dd3c7" stroke="#000000" points="1260.2465,-122 1257.2465,-126 1236.2465,-126 1233.2465,-122 1159.7535,-122 1159.7535,-86 1260.2465,-86 1260.2465,-122"/>
<text text-anchor="middle" x="1210" y="-99.8" font-family="Times,serif" font-size="14.00" fill="#000000">NavbarModule</text>
</g>
<!-- NavbarModule&#45;&gt;AppModule -->
<g id="edge18" class="edge">
<title>NavbarModule&#45;&gt;AppModule</title>
<path fill="none" stroke="#000000" d="M1210,-122.0225C1210,-139.3734 1210,-163 1210,-163 1210,-163 1744.3261,-163 1744.3261,-163"/>
<polygon fill="#000000" stroke="#000000" points="1744.3261,-166.5001 1754.3261,-163 1744.3261,-159.5001 1744.3261,-166.5001"/>
</g>
<!-- HomeModule -->
<g id="node20" class="node">
<title>HomeModule</title>
<polygon fill="#8dd3c7" stroke="#000000" points="1141.7619,-122 1138.7619,-126 1117.7619,-126 1114.7619,-122 1048.2381,-122 1048.2381,-86 1141.7619,-86 1141.7619,-122"/>
<text text-anchor="middle" x="1095" y="-99.8" font-family="Times,serif" font-size="14.00" fill="#000000">HomeModule</text>
</g>
<!-- HomeModule&#45;&gt;AppModule -->
<g id="edge19" class="edge">
<title>HomeModule&#45;&gt;AppModule</title>
<path fill="none" stroke="#000000" d="M1095,-122.302C1095,-140.2699 1095,-165 1095,-165 1095,-165 1744.2486,-165 1744.2486,-165"/>
<polygon fill="#000000" stroke="#000000" points="1744.2486,-168.5001 1754.2486,-165 1744.2485,-161.5001 1744.2486,-168.5001"/>
</g>
<!-- UsersModule -->
<g id="node21" class="node">
<title>UsersModule</title>
<polygon fill="#8dd3c7" stroke="#000000" points="1029.9218,-122 1026.9218,-126 1005.9218,-126 1002.9218,-122 938.0782,-122 938.0782,-86 1029.9218,-86 1029.9218,-122"/>
<text text-anchor="middle" x="984" y="-99.8" font-family="Times,serif" font-size="14.00" fill="#000000">UsersModule</text>
</g>
<!-- UsersModule&#45;&gt;AppModule -->
<g id="edge20" class="edge">
<title>UsersModule&#45;&gt;AppModule</title>
<path fill="none" stroke="#000000" d="M984,-122.1686C984,-141.0898 984,-168 984,-168 984,-168 1744.3353,-168 1744.3353,-168"/>
<polygon fill="#000000" stroke="#000000" points="1744.3353,-171.5001 1754.3353,-168 1744.3352,-164.5001 1744.3353,-171.5001"/>
</g>
<!-- RequestsModule -->
<g id="node22" class="node">
<title>RequestsModule</title>
<polygon fill="#8dd3c7" stroke="#000000" points="920.0954,-122 917.0954,-126 896.0954,-126 893.0954,-122 809.9046,-122 809.9046,-86 920.0954,-86 920.0954,-122"/>
<text text-anchor="middle" x="865" y="-99.8" font-family="Times,serif" font-size="14.00" fill="#000000">RequestsModule</text>
</g>
<!-- RequestsModule&#45;&gt;AppModule -->
<g id="edge21" class="edge">
<title>RequestsModule&#45;&gt;AppModule</title>
<path fill="none" stroke="#000000" d="M865,-122.308C865,-142.1455 865,-171 865,-171 865,-171 1744.1882,-171 1744.1882,-171"/>
<polygon fill="#000000" stroke="#000000" points="1744.1882,-174.5001 1754.1882,-171 1744.1882,-167.5001 1744.1882,-174.5001"/>
</g>
<!-- SchedulesModule -->
<g id="node23" class="node">
<title>SchedulesModule</title>
<polygon fill="#8dd3c7" stroke="#000000" points="792.3118,-122 789.3118,-126 768.3118,-126 765.3118,-122 675.6882,-122 675.6882,-86 792.3118,-86 792.3118,-122"/>
<text text-anchor="middle" x="734" y="-99.8" font-family="Times,serif" font-size="14.00" fill="#000000">SchedulesModule</text>
</g>
<!-- SchedulesModule&#45;&gt;AppModule -->
<g id="edge22" class="edge">
<title>SchedulesModule&#45;&gt;AppModule</title>
<path fill="none" stroke="#000000" d="M734,-122.0267C734,-142.7672 734,-174 734,-174 734,-174 1744.0412,-174 1744.0412,-174"/>
<polygon fill="#000000" stroke="#000000" points="1744.0413,-177.5001 1754.0412,-174 1744.0412,-170.5001 1744.0413,-177.5001"/>
</g>
<!-- FirebaseService -->
<g id="node26" class="node">
<title>FirebaseService</title>
<ellipse fill="#fdb462" stroke="#000000" cx="579" cy="-104" rx="72.9063" ry="18"/>
<text text-anchor="middle" x="579" y="-99.8" font-family="Times,serif" font-size="14.00" fill="#000000">FirebaseService</text>
</g>
<!-- FirebaseService&#45;&gt;AppModule -->
<g id="edge25" class="edge">
<title>FirebaseService&#45;&gt;AppModule</title>
<path fill="none" stroke="#000000" d="M579,-122.1686C579,-143.498 579,-176 579,-176 579,-176 1744.1081,-176 1744.1081,-176"/>
<polygon fill="#000000" stroke="#000000" points="1744.1081,-179.5001 1754.1081,-176 1744.1081,-172.5001 1744.1081,-179.5001"/>
</g>
<!-- DialogsService -->
<g id="node27" class="node">
<title>DialogsService</title>
<ellipse fill="#fdb462" stroke="#000000" cx="418" cy="-104" rx="70.0596" ry="18"/>
<text text-anchor="middle" x="418" y="-99.8" font-family="Times,serif" font-size="14.00" fill="#000000">DialogsService</text>
</g>
<!-- DialogsService&#45;&gt;AppModule -->
<g id="edge26" class="edge">
<title>DialogsService&#45;&gt;AppModule</title>
<path fill="none" stroke="#000000" d="M418,-122.1554C418,-144.3519 418,-179 418,-179 418,-179 1744.0068,-179 1744.0068,-179"/>
<polygon fill="#000000" stroke="#000000" points="1744.0068,-182.5001 1754.0068,-179 1744.0067,-175.5001 1744.0068,-182.5001"/>
</g>
<!-- NavbarService -->
<g id="node28" class="node">
<title>NavbarService</title>
<ellipse fill="#fdb462" stroke="#000000" cx="262" cy="-104" rx="68.317" ry="18"/>
<text text-anchor="middle" x="262" y="-99.8" font-family="Times,serif" font-size="14.00" fill="#000000">NavbarService</text>
</g>
<!-- NavbarService&#45;&gt;AppModule -->
<g id="edge27" class="edge">
<title>NavbarService&#45;&gt;AppModule</title>
<path fill="none" stroke="#000000" d="M262,-122.0908C262,-145.1328 262,-182 262,-182 262,-182 1744.1736,-182 1744.1736,-182"/>
<polygon fill="#000000" stroke="#000000" points="1744.1737,-185.5001 1754.1736,-182 1744.1736,-178.5001 1744.1737,-185.5001"/>
</g>
<!-- SnackbarService -->
<g id="node29" class="node">
<title>SnackbarService</title>
<ellipse fill="#fdb462" stroke="#000000" cx="100" cy="-104" rx="75.8412" ry="18"/>
<text text-anchor="middle" x="100" y="-99.8" font-family="Times,serif" font-size="14.00" fill="#000000">SnackbarService</text>
</g>
<!-- SnackbarService&#45;&gt;AppModule -->
<g id="edge28" class="edge">
<title>SnackbarService&#45;&gt;AppModule</title>
<path fill="none" stroke="#000000" d="M100,-122.3802C100,-146.2785 100,-185 100,-185 100,-185 1744.0762,-185 1744.0762,-185"/>
<polygon fill="#000000" stroke="#000000" points="1744.0762,-188.5001 1754.0762,-185 1744.0761,-181.5001 1744.0762,-188.5001"/>
</g>
</g>
</svg>
