<?xml version="1.0" encoding="UTF-8" standalone="no"?>
<!DOCTYPE svg PUBLIC "-//W3C//DTD SVG 1.1//EN"
 "http://www.w3.org/Graphics/SVG/1.1/DTD/svg11.dtd">
<!-- Generated by graphviz version 2.40.1 (20161225.0304)
 -->
<!-- Title: dependencies Pages: 1 -->
<svg width="3851pt" height="284pt"
 viewBox="0.00 0.00 3851.00 284.00" xmlns="http://www.w3.org/2000/svg" xmlns:xlink="http://www.w3.org/1999/xlink">
<g id="graph0" class="graph" transform="scale(1 1) rotate(0) translate(4 280)">
<title>dependencies</title>
<polygon fill="#ffffff" stroke="transparent" points="-4,4 -4,-280 3847,-280 3847,4 -4,4"/>
<text text-anchor="start" x="1900.5091" y="-42.4" font-family="sans-serif" font-weight="bold" font-size="14.00" fill="#000000">Legend</text>
<polygon fill="#ffffb3" stroke="transparent" points="1687.5,-10 1687.5,-30 1707.5,-30 1707.5,-10 1687.5,-10"/>
<text text-anchor="start" x="1711.129" y="-15.4" font-family="sans-serif" font-size="14.00" fill="#000000"> &#160;Declarations</text>
<polygon fill="#8dd3c7" stroke="transparent" points="1800.5,-10 1800.5,-30 1820.5,-30 1820.5,-10 1800.5,-10"/>
<text text-anchor="start" x="1824.2251" y="-15.4" font-family="sans-serif" font-size="14.00" fill="#000000"> &#160;Module</text>
<polygon fill="#80b1d3" stroke="transparent" points="1886.5,-10 1886.5,-30 1906.5,-30 1906.5,-10 1886.5,-10"/>
<text text-anchor="start" x="1910.2812" y="-15.4" font-family="sans-serif" font-size="14.00" fill="#000000"> &#160;Bootstrap</text>
<polygon fill="#fdb462" stroke="transparent" points="1983.5,-10 1983.5,-30 2003.5,-30 2003.5,-10 1983.5,-10"/>
<text text-anchor="start" x="2007.1732" y="-15.4" font-family="sans-serif" font-size="14.00" fill="#000000"> &#160;Providers</text>
<polygon fill="#fb8072" stroke="transparent" points="2079.5,-10 2079.5,-30 2099.5,-30 2099.5,-10 2079.5,-10"/>
<text text-anchor="start" x="2103.2258" y="-15.4" font-family="sans-serif" font-size="14.00" fill="#000000"> &#160;Exports</text>
<g id="clust1" class="cluster">
<title>cluster_AppModule</title>
<polygon fill="none" stroke="#000000" stroke-dasharray="1,5" points="8,-70 8,-268 3835,-268 3835,-70 8,-70"/>
</g>
<g id="clust2" class="cluster">
<title>cluster_AppModule_declarations</title>
<polygon fill="none" stroke="#000000" points="3563,-78 3563,-130 3827,-130 3827,-78 3563,-78"/>
</g>
<g id="clust5" class="cluster">
<title>cluster_AppModule_imports</title>
<polygon fill="none" stroke="#000000" points="676,-78 676,-130 3555,-130 3555,-78 676,-78"/>
</g>
<g id="clust6" class="cluster">
<title>cluster_AppModule_exports</title>
<polygon fill="none" stroke="#000000" points="1661,-208 1661,-260 1805,-260 1805,-208 1661,-208"/>
</g>
<g id="clust7" class="cluster">
<title>cluster_AppModule_bootstrap</title>
<polygon fill="none" stroke="#000000" points="1813,-208 1813,-260 1937,-260 1937,-208 1813,-208"/>
</g>
<g id="clust8" class="cluster">
<title>cluster_AppModule_providers</title>
<polygon fill="none" stroke="#000000" points="16,-78 16,-130 668,-130 668,-78 16,-78"/>
</g>
<!-- AppComponent -->
<g id="node1" class="node">
<title>AppComponent</title>
<polygon fill="#ffffb3" stroke="#000000" points="3818.9399,-122 3713.0601,-122 3713.0601,-86 3818.9399,-86 3818.9399,-122"/>
<text text-anchor="middle" x="3766" y="-99.8" font-family="Times,serif" font-size="14.00" fill="#000000">AppComponent</text>
</g>
<!-- AppModule -->
<g id="node3" class="node">
<title>AppModule</title>
<polygon fill="#8dd3c7" stroke="#000000" points="1845.6571,-187 1842.6571,-191 1821.6571,-191 1818.6571,-187 1762.3429,-187 1762.3429,-151 1845.6571,-151 1845.6571,-187"/>
<text text-anchor="middle" x="1804" y="-164.8" font-family="Times,serif" font-size="14.00" fill="#000000">AppModule</text>
</g>
<!-- AppComponent&#45;&gt;AppModule -->
<g id="edge1" class="edge">
<title>AppComponent&#45;&gt;AppModule</title>
<path fill="none" stroke="#000000" d="M3766,-122.3802C3766,-146.2785 3766,-185 3766,-185 3766,-185 1855.8868,-185 1855.8868,-185"/>
<polygon fill="#000000" stroke="#000000" points="1855.8869,-181.5001 1845.8868,-185 1855.8868,-188.5001 1855.8869,-181.5001"/>
</g>
<!-- DialogsComponent -->
<g id="node2" class="node">
<title>DialogsComponent</title>
<polygon fill="#ffffb3" stroke="#000000" points="3695.3795,-122 3570.6205,-122 3570.6205,-86 3695.3795,-86 3695.3795,-122"/>
<text text-anchor="middle" x="3633" y="-99.8" font-family="Times,serif" font-size="14.00" fill="#000000">DialogsComponent</text>
</g>
<!-- DialogsComponent&#45;&gt;AppModule -->
<g id="edge2" class="edge">
<title>DialogsComponent&#45;&gt;AppModule</title>
<path fill="none" stroke="#000000" d="M3633,-122.0908C3633,-145.1328 3633,-182 3633,-182 3633,-182 1856.0769,-182 1856.0769,-182"/>
<polygon fill="#000000" stroke="#000000" points="1856.077,-178.5001 1846.0769,-182 1856.0769,-185.5001 1856.077,-178.5001"/>
</g>
<!-- DialogsComponent  -->
<g id="node24" class="node">
<title>DialogsComponent </title>
<polygon fill="#fb8072" stroke="#000000" points="1797.38,-252 1668.62,-252 1668.62,-216 1797.38,-216 1797.38,-252"/>
<text text-anchor="middle" x="1733" y="-229.8" font-family="Times,serif" font-size="14.00" fill="#000000">DialogsComponent </text>
</g>
<!-- AppModule&#45;&gt;DialogsComponent  -->
<g id="edge23" class="edge">
<title>AppModule&#45;&gt;DialogsComponent </title>
<path fill="none" stroke="#000000" stroke-dasharray="5,2" d="M1779.6808,-187.1061C1779.6808,-187.1061 1779.6808,-205.991 1779.6808,-205.991"/>
<polygon fill="#000000" stroke="#000000" points="1776.1808,-205.9909 1779.6808,-215.991 1783.1808,-205.991 1776.1808,-205.9909"/>
</g>
<!-- AppComponent  -->
<g id="node25" class="node">
<title>AppComponent </title>
<polygon fill="#80b1d3" stroke="#000000" points="1929.439,-252 1820.561,-252 1820.561,-216 1929.439,-216 1929.439,-252"/>
<text text-anchor="middle" x="1875" y="-229.8" font-family="Times,serif" font-size="14.00" fill="#000000">AppComponent </text>
</g>
<!-- AppModule&#45;&gt;AppComponent  -->
<g id="edge24" class="edge">
<title>AppModule&#45;&gt;AppComponent </title>
<path fill="none" stroke="#000000" stroke-dasharray="1,5" d="M1833.1794,-187.1061C1833.1794,-187.1061 1833.1794,-205.991 1833.1794,-205.991"/>
<polygon fill="#000000" stroke="#000000" points="1829.6794,-205.9909 1833.1794,-215.991 1836.6794,-205.991 1829.6794,-205.9909"/>
</g>
<!-- BrowserModule -->
<g id="node4" class="node">
<title>BrowserModule</title>
<polygon fill="#8dd3c7" stroke="#000000" points="3547.4734,-122 3544.4734,-126 3523.4734,-126 3520.4734,-122 3440.5266,-122 3440.5266,-86 3547.4734,-86 3547.4734,-122"/>
<text text-anchor="middle" x="3494" y="-99.8" font-family="Times,serif" font-size="14.00" fill="#000000">BrowserModule</text>
</g>
<!-- BrowserModule&#45;&gt;AppModule -->
<g id="edge3" class="edge">
<title>BrowserModule&#45;&gt;AppModule</title>
<path fill="none" stroke="#000000" d="M3494,-122.1554C3494,-144.3519 3494,-179 3494,-179 3494,-179 1855.7755,-179 1855.7755,-179"/>
<polygon fill="#000000" stroke="#000000" points="1855.7755,-175.5001 1845.7755,-179 1855.7755,-182.5001 1855.7755,-175.5001"/>
</g>
<!-- HttpModule -->
<g id="node5" class="node">
<title>HttpModule</title>
<polygon fill="#8dd3c7" stroke="#000000" points="3422.4387,-122 3419.4387,-126 3398.4387,-126 3395.4387,-122 3337.5613,-122 3337.5613,-86 3422.4387,-86 3422.4387,-122"/>
<text text-anchor="middle" x="3380" y="-99.8" font-family="Times,serif" font-size="14.00" fill="#000000">HttpModule</text>
</g>
<!-- HttpModule&#45;&gt;AppModule -->
<g id="edge4" class="edge">
<title>HttpModule&#45;&gt;AppModule</title>
<path fill="none" stroke="#000000" d="M3380,-122.1686C3380,-143.498 3380,-176 3380,-176 3380,-176 1855.7482,-176 1855.7482,-176"/>
<polygon fill="#000000" stroke="#000000" points="1855.7483,-172.5001 1845.7482,-176 1855.7482,-179.5001 1855.7483,-172.5001"/>
</g>
<!-- AppRoutingModule -->
<g id="node6" class="node">
<title>AppRoutingModule</title>
<polygon fill="#8dd3c7" stroke="#000000" points="3319.2744,-122 3316.2744,-126 3295.2744,-126 3292.2744,-122 3190.7256,-122 3190.7256,-86 3319.2744,-86 3319.2744,-122"/>
<text text-anchor="middle" x="3255" y="-99.8" font-family="Times,serif" font-size="14.00" fill="#000000">AppRoutingModule</text>
</g>
<!-- AppRoutingModule&#45;&gt;AppModule -->
<g id="edge5" class="edge">
<title>AppRoutingModule&#45;&gt;AppModule</title>
<path fill="none" stroke="#000000" d="M3255,-122.0267C3255,-142.7672 3255,-174 3255,-174 3255,-174 1855.8608,-174 1855.8608,-174"/>
<polygon fill="#000000" stroke="#000000" points="1855.8608,-170.5001 1845.8608,-174 1855.8607,-177.5001 1855.8608,-170.5001"/>
</g>
<!-- AngularFireModule.initializeApp(args) -->
<g id="node7" class="node">
<title>AngularFireModule.initializeApp(args)</title>
<polygon fill="#8dd3c7" stroke="#000000" points="3172.7057,-122 3169.7057,-126 3148.7057,-126 3145.7057,-122 2935.2943,-122 2935.2943,-86 3172.7057,-86 3172.7057,-122"/>
<text text-anchor="middle" x="3054" y="-99.8" font-family="Times,serif" font-size="14.00" fill="#000000">AngularFireModule.initializeApp(args)</text>
</g>
<!-- AngularFireModule.initializeApp(args)&#45;&gt;AppModule -->
<g id="edge6" class="edge">
<title>AngularFireModule.initializeApp(args)&#45;&gt;AppModule</title>
<path fill="none" stroke="#000000" d="M3054,-122.308C3054,-142.1455 3054,-171 3054,-171 3054,-171 1855.9472,-171 1855.9472,-171"/>
<polygon fill="#000000" stroke="#000000" points="1855.9472,-167.5001 1845.9472,-171 1855.9471,-174.5001 1855.9472,-167.5001"/>
</g>
<!-- AngularFireDatabaseModule -->
<g id="node8" class="node">
<title>AngularFireDatabaseModule</title>
<polygon fill="#8dd3c7" stroke="#000000" points="2917.771,-122 2914.771,-126 2893.771,-126 2890.771,-122 2738.229,-122 2738.229,-86 2917.771,-86 2917.771,-122"/>
<text text-anchor="middle" x="2828" y="-99.8" font-family="Times,serif" font-size="14.00" fill="#000000">AngularFireDatabaseModule</text>
</g>
<!-- AngularFireDatabaseModule&#45;&gt;AppModule -->
<g id="edge7" class="edge">
<title>AngularFireDatabaseModule&#45;&gt;AppModule</title>
<path fill="none" stroke="#000000" d="M2828,-122.1686C2828,-141.0898 2828,-168 2828,-168 2828,-168 1855.7301,-168 1855.7301,-168"/>
<polygon fill="#000000" stroke="#000000" points="1855.7302,-164.5001 1845.7301,-168 1855.7301,-171.5001 1855.7302,-164.5001"/>
</g>
<!-- FlashMessagesModule -->
<g id="node9" class="node">
<title>FlashMessagesModule</title>
<polygon fill="#8dd3c7" stroke="#000000" points="2720.3047,-122 2717.3047,-126 2696.3047,-126 2693.3047,-122 2575.6953,-122 2575.6953,-86 2720.3047,-86 2720.3047,-122"/>
<text text-anchor="middle" x="2648" y="-99.8" font-family="Times,serif" font-size="14.00" fill="#000000">FlashMessagesModule</text>
</g>
<!-- FlashMessagesModule&#45;&gt;AppModule -->
<g id="edge8" class="edge">
<title>FlashMessagesModule&#45;&gt;AppModule</title>
<path fill="none" stroke="#000000" d="M2648,-122.302C2648,-140.2699 2648,-165 2648,-165 2648,-165 1855.8541,-165 1855.8541,-165"/>
<polygon fill="#000000" stroke="#000000" points="1855.8541,-161.5001 1845.8541,-165 1855.8541,-168.5001 1855.8541,-161.5001"/>
</g>
<!-- MaterialModule -->
<g id="node10" class="node">
<title>MaterialModule</title>
<polygon fill="#8dd3c7" stroke="#000000" points="2557.4706,-122 2554.4706,-126 2533.4706,-126 2530.4706,-122 2450.5294,-122 2450.5294,-86 2557.4706,-86 2557.4706,-122"/>
<text text-anchor="middle" x="2504" y="-99.8" font-family="Times,serif" font-size="14.00" fill="#000000">MaterialModule</text>
</g>
<!-- MaterialModule&#45;&gt;AppModule -->
<g id="edge9" class="edge">
<title>MaterialModule&#45;&gt;AppModule</title>
<path fill="none" stroke="#000000" d="M2504,-122.0225C2504,-139.3734 2504,-163 2504,-163 2504,-163 1855.6919,-163 1855.6919,-163"/>
<polygon fill="#000000" stroke="#000000" points="1855.6919,-159.5001 1845.6919,-163 1855.6918,-166.5001 1855.6919,-159.5001"/>
</g>
<!-- BrowserAnimationsModule -->
<g id="node11" class="node">
<title>BrowserAnimationsModule</title>
<polygon fill="#8dd3c7" stroke="#000000" points="2432.3019,-122 2429.3019,-126 2408.3019,-126 2405.3019,-122 2259.6981,-122 2259.6981,-86 2432.3019,-86 2432.3019,-122"/>
<text text-anchor="middle" x="2346" y="-99.8" font-family="Times,serif" font-size="14.00" fill="#000000">BrowserAnimationsModule</text>
</g>
<!-- BrowserAnimationsModule&#45;&gt;AppModule -->
<g id="edge10" class="edge">
<title>BrowserAnimationsModule&#45;&gt;AppModule</title>
<path fill="none" stroke="#000000" d="M2346,-122.027C2346,-138.3976 2346,-160 2346,-160 2346,-160 1856.0788,-160 1856.0788,-160"/>
<polygon fill="#000000" stroke="#000000" points="1856.0789,-156.5001 1846.0788,-160 1856.0788,-163.5001 1856.0789,-156.5001"/>
</g>
<!-- AngularFireAuthModule -->
<g id="node12" class="node">
<title>AngularFireAuthModule</title>
<polygon fill="#8dd3c7" stroke="#000000" points="2241.9678,-122 2238.9678,-126 2217.9678,-126 2214.9678,-122 2086.0322,-122 2086.0322,-86 2241.9678,-86 2241.9678,-122"/>
<text text-anchor="middle" x="2164" y="-99.8" font-family="Times,serif" font-size="14.00" fill="#000000">AngularFireAuthModule</text>
</g>
<!-- AngularFireAuthModule&#45;&gt;AppModule -->
<g id="edge11" class="edge">
<title>AngularFireAuthModule&#45;&gt;AppModule</title>
<path fill="none" stroke="#000000" d="M2164,-122.2396C2164,-137.5706 2164,-157 2164,-157 2164,-157 1856.0011,-157 1856.0011,-157"/>
<polygon fill="#000000" stroke="#000000" points="1856.0012,-153.5001 1846.0011,-157 1856.0011,-160.5001 1856.0012,-153.5001"/>
</g>
<!-- MdDialogModule -->
<g id="node13" class="node">
<title>MdDialogModule</title>
<polygon fill="#8dd3c7" stroke="#000000" points="2067.5968,-122 2064.5968,-126 2043.5968,-126 2040.5968,-122 1950.4032,-122 1950.4032,-86 2067.5968,-86 2067.5968,-122"/>
<text text-anchor="middle" x="2009" y="-99.8" font-family="Times,serif" font-size="14.00" fill="#000000">MdDialogModule</text>
</g>
<!-- MdDialogModule&#45;&gt;AppModule -->
<g id="edge12" class="edge">
<title>MdDialogModule&#45;&gt;AppModule</title>
<path fill="none" stroke="#000000" d="M2009,-122.0511C2009,-136.373 2009,-154 2009,-154 2009,-154 1855.9795,-154 1855.9795,-154"/>
<polygon fill="#000000" stroke="#000000" points="1855.9795,-150.5001 1845.9795,-154 1855.9795,-157.5001 1855.9795,-150.5001"/>
</g>
<!-- MdButtonModule -->
<g id="node14" class="node">
<title>MdButtonModule</title>
<polygon fill="#8dd3c7" stroke="#000000" points="1932.6123,-122 1929.6123,-126 1908.6123,-126 1905.6123,-122 1815.3877,-122 1815.3877,-86 1932.6123,-86 1932.6123,-122"/>
<text text-anchor="middle" x="1874" y="-99.8" font-family="Times,serif" font-size="14.00" fill="#000000">MdButtonModule</text>
</g>
<!-- MdButtonModule&#45;&gt;AppModule -->
<g id="edge13" class="edge">
<title>MdButtonModule&#45;&gt;AppModule</title>
<path fill="none" stroke="#000000" d="M1830.6361,-122.1061C1830.6361,-122.1061 1830.6361,-140.991 1830.6361,-140.991"/>
<polygon fill="#000000" stroke="#000000" points="1827.1361,-140.9909 1830.6361,-150.991 1834.1361,-140.991 1827.1361,-140.9909"/>
</g>
<!-- AllocationsModule -->
<g id="node15" class="node">
<title>AllocationsModule</title>
<polygon fill="#8dd3c7" stroke="#000000" points="1797.0926,-122 1794.0926,-126 1773.0926,-126 1770.0926,-122 1672.9074,-122 1672.9074,-86 1797.0926,-86 1797.0926,-122"/>
<text text-anchor="middle" x="1735" y="-99.8" font-family="Times,serif" font-size="14.00" fill="#000000">AllocationsModule</text>
</g>
<!-- AllocationsModule&#45;&gt;AppModule -->
<g id="edge14" class="edge">
<title>AllocationsModule&#45;&gt;AppModule</title>
<path fill="none" stroke="#000000" d="M1779.6091,-122.1061C1779.6091,-122.1061 1779.6091,-140.991 1779.6091,-140.991"/>
<polygon fill="#000000" stroke="#000000" points="1776.1091,-140.9909 1779.6091,-150.991 1783.1091,-140.991 1776.1091,-140.9909"/>
</g>
<!-- SemesterModule -->
<g id="node16" class="node">
<title>SemesterModule</title>
<polygon fill="#8dd3c7" stroke="#000000" points="1655.3627,-122 1652.3627,-126 1631.3627,-126 1628.3627,-122 1544.6373,-122 1544.6373,-86 1655.3627,-86 1655.3627,-122"/>
<text text-anchor="middle" x="1600" y="-99.8" font-family="Times,serif" font-size="14.00" fill="#000000">SemesterModule</text>
</g>
<!-- SemesterModule&#45;&gt;AppModule -->
<g id="edge15" class="edge">
<title>SemesterModule&#45;&gt;AppModule</title>
<path fill="none" stroke="#000000" d="M1600,-122.0511C1600,-136.373 1600,-154 1600,-154 1600,-154 1752.2253,-154 1752.2253,-154"/>
<polygon fill="#000000" stroke="#000000" points="1752.2253,-157.5001 1762.2253,-154 1752.2253,-150.5001 1752.2253,-157.5001"/>
</g>
<!-- CoursesModule -->
<g id="node17" class="node">
<title>CoursesModule</title>
<polygon fill="#8dd3c7" stroke="#000000" points="1526.1514,-122 1523.1514,-126 1502.1514,-126 1499.1514,-122 1421.8486,-122 1421.8486,-86 1526.1514,-86 1526.1514,-122"/>
<text text-anchor="middle" x="1474" y="-99.8" font-family="Times,serif" font-size="14.00" fill="#000000">CoursesModule</text>
</g>
<!-- CoursesModule&#45;&gt;AppModule -->
<g id="edge16" class="edge">
<title>CoursesModule&#45;&gt;AppModule</title>
<path fill="none" stroke="#000000" d="M1474,-122.2396C1474,-137.5706 1474,-157 1474,-157 1474,-157 1752.2053,-157 1752.2053,-157"/>
<polygon fill="#000000" stroke="#000000" points="1752.2053,-160.5001 1762.2053,-157 1752.2052,-153.5001 1752.2053,-160.5001"/>
</g>
<!-- ProfessorsModule -->
<g id="node18" class="node">
<title>ProfessorsModule</title>
<polygon fill="#8dd3c7" stroke="#000000" points="1403.8627,-122 1400.8627,-126 1379.8627,-126 1376.8627,-122 1286.1373,-122 1286.1373,-86 1403.8627,-86 1403.8627,-122"/>
<text text-anchor="middle" x="1345" y="-99.8" font-family="Times,serif" font-size="14.00" fill="#000000">ProfessorsModule</text>
</g>
<!-- ProfessorsModule&#45;&gt;AppModule -->
<g id="edge17" class="edge">
<title>ProfessorsModule&#45;&gt;AppModule</title>
<path fill="none" stroke="#000000" d="M1345,-122.027C1345,-138.3976 1345,-160 1345,-160 1345,-160 1752.05,-160 1752.05,-160"/>
<polygon fill="#000000" stroke="#000000" points="1752.05,-163.5001 1762.05,-160 1752.05,-156.5001 1752.05,-163.5001"/>
</g>
<!-- NavbarModule -->
<g id="node19" class="node">
<title>NavbarModule</title>
<polygon fill="#8dd3c7" stroke="#000000" points="1268.2465,-122 1265.2465,-126 1244.2465,-126 1241.2465,-122 1167.7535,-122 1167.7535,-86 1268.2465,-86 1268.2465,-122"/>
<text text-anchor="middle" x="1218" y="-99.8" font-family="Times,serif" font-size="14.00" fill="#000000">NavbarModule</text>
</g>
<!-- NavbarModule&#45;&gt;AppModule -->
<g id="edge18" class="edge">
<title>NavbarModule&#45;&gt;AppModule</title>
<path fill="none" stroke="#000000" d="M1218,-122.0225C1218,-139.3734 1218,-163 1218,-163 1218,-163 1752.3261,-163 1752.3261,-163"/>
<polygon fill="#000000" stroke="#000000" points="1752.3261,-166.5001 1762.3261,-163 1752.3261,-159.5001 1752.3261,-166.5001"/>
</g>
<!-- HomeModule -->
<g id="node20" class="node">
<title>HomeModule</title>
<polygon fill="#8dd3c7" stroke="#000000" points="1149.7619,-122 1146.7619,-126 1125.7619,-126 1122.7619,-122 1056.2381,-122 1056.2381,-86 1149.7619,-86 1149.7619,-122"/>
<text text-anchor="middle" x="1103" y="-99.8" font-family="Times,serif" font-size="14.00" fill="#000000">HomeModule</text>
</g>
<!-- HomeModule&#45;&gt;AppModule -->
<g id="edge19" class="edge">
<title>HomeModule&#45;&gt;AppModule</title>
<path fill="none" stroke="#000000" d="M1103,-122.302C1103,-140.2699 1103,-165 1103,-165 1103,-165 1752.2486,-165 1752.2486,-165"/>
<polygon fill="#000000" stroke="#000000" points="1752.2486,-168.5001 1762.2486,-165 1752.2485,-161.5001 1752.2486,-168.5001"/>
</g>
<!-- UsersModule -->
<g id="node21" class="node">
<title>UsersModule</title>
<polygon fill="#8dd3c7" stroke="#000000" points="1037.9218,-122 1034.9218,-126 1013.9218,-126 1010.9218,-122 946.0782,-122 946.0782,-86 1037.9218,-86 1037.9218,-122"/>
<text text-anchor="middle" x="992" y="-99.8" font-family="Times,serif" font-size="14.00" fill="#000000">UsersModule</text>
</g>
<!-- UsersModule&#45;&gt;AppModule -->
<g id="edge20" class="edge">
<title>UsersModule&#45;&gt;AppModule</title>
<path fill="none" stroke="#000000" d="M992,-122.1686C992,-141.0898 992,-168 992,-168 992,-168 1752.3353,-168 1752.3353,-168"/>
<polygon fill="#000000" stroke="#000000" points="1752.3353,-171.5001 1762.3353,-168 1752.3352,-164.5001 1752.3353,-171.5001"/>
</g>
<!-- RequestsModule -->
<g id="node22" class="node">
<title>RequestsModule</title>
<polygon fill="#8dd3c7" stroke="#000000" points="928.0954,-122 925.0954,-126 904.0954,-126 901.0954,-122 817.9046,-122 817.9046,-86 928.0954,-86 928.0954,-122"/>
<text text-anchor="middle" x="873" y="-99.8" font-family="Times,serif" font-size="14.00" fill="#000000">RequestsModule</text>
</g>
<!-- RequestsModule&#45;&gt;AppModule -->
<g id="edge21" class="edge">
<title>RequestsModule&#45;&gt;AppModule</title>
<path fill="none" stroke="#000000" d="M873,-122.308C873,-142.1455 873,-171 873,-171 873,-171 1752.1882,-171 1752.1882,-171"/>
<polygon fill="#000000" stroke="#000000" points="1752.1882,-174.5001 1762.1882,-171 1752.1882,-167.5001 1752.1882,-174.5001"/>
</g>
<!-- SchedulesModule -->
<g id="node23" class="node">
<title>SchedulesModule</title>
<polygon fill="#8dd3c7" stroke="#000000" points="800.3118,-122 797.3118,-126 776.3118,-126 773.3118,-122 683.6882,-122 683.6882,-86 800.3118,-86 800.3118,-122"/>
<text text-anchor="middle" x="742" y="-99.8" font-family="Times,serif" font-size="14.00" fill="#000000">SchedulesModule</text>
</g>
<!-- SchedulesModule&#45;&gt;AppModule -->
<g id="edge22" class="edge">
<title>SchedulesModule&#45;&gt;AppModule</title>
<path fill="none" stroke="#000000" d="M742,-122.0267C742,-142.7672 742,-174 742,-174 742,-174 1752.0412,-174 1752.0412,-174"/>
<polygon fill="#000000" stroke="#000000" points="1752.0413,-177.5001 1762.0412,-174 1752.0412,-170.5001 1752.0413,-177.5001"/>
</g>
<!-- FirebaseService -->
<g id="node26" class="node">
<title>FirebaseService</title>
<ellipse fill="#fdb462" stroke="#000000" cx="587" cy="-104" rx="72.9063" ry="18"/>
<text text-anchor="middle" x="587" y="-99.8" font-family="Times,serif" font-size="14.00" fill="#000000">FirebaseService</text>
</g>
<!-- FirebaseService&#45;&gt;AppModule -->
<g id="edge25" class="edge">
<title>FirebaseService&#45;&gt;AppModule</title>
<path fill="none" stroke="#000000" d="M587,-122.1686C587,-143.498 587,-176 587,-176 587,-176 1752.1081,-176 1752.1081,-176"/>
<polygon fill="#000000" stroke="#000000" points="1752.1081,-179.5001 1762.1081,-176 1752.1081,-172.5001 1752.1081,-179.5001"/>
</g>
<!-- DialogsService -->
<g id="node27" class="node">
<title>DialogsService</title>
<ellipse fill="#fdb462" stroke="#000000" cx="426" cy="-104" rx="70.0596" ry="18"/>
<text text-anchor="middle" x="426" y="-99.8" font-family="Times,serif" font-size="14.00" fill="#000000">DialogsService</text>
</g>
<!-- DialogsService&#45;&gt;AppModule -->
<g id="edge26" class="edge">
<title>DialogsService&#45;&gt;AppModule</title>
<path fill="none" stroke="#000000" d="M426,-122.1554C426,-144.3519 426,-179 426,-179 426,-179 1752.0068,-179 1752.0068,-179"/>
<polygon fill="#000000" stroke="#000000" points="1752.0068,-182.5001 1762.0068,-179 1752.0067,-175.5001 1752.0068,-182.5001"/>
</g>
<!-- NavbarService -->
<g id="node28" class="node">
<title>NavbarService</title>
<ellipse fill="#fdb462" stroke="#000000" cx="270" cy="-104" rx="68.317" ry="18"/>
<text text-anchor="middle" x="270" y="-99.8" font-family="Times,serif" font-size="14.00" fill="#000000">NavbarService</text>
</g>
<!-- NavbarService&#45;&gt;AppModule -->
<g id="edge27" class="edge">
<title>NavbarService&#45;&gt;AppModule</title>
<path fill="none" stroke="#000000" d="M270,-122.0908C270,-145.1328 270,-182 270,-182 270,-182 1752.1736,-182 1752.1736,-182"/>
<polygon fill="#000000" stroke="#000000" points="1752.1737,-185.5001 1762.1736,-182 1752.1736,-178.5001 1752.1737,-185.5001"/>
</g>
<!-- SnackbarsService -->
<g id="node29" class="node">
<title>SnackbarsService</title>
<ellipse fill="#fdb462" stroke="#000000" cx="104" cy="-104" rx="79.8527" ry="18"/>
<text text-anchor="middle" x="104" y="-99.8" font-family="Times,serif" font-size="14.00" fill="#000000">SnackbarsService</text>
</g>
<!-- SnackbarsService&#45;&gt;AppModule -->
<g id="edge28" class="edge">
<title>SnackbarsService&#45;&gt;AppModule</title>
<path fill="none" stroke="#000000" d="M104,-122.3802C104,-146.2785 104,-185 104,-185 104,-185 1751.9773,-185 1751.9773,-185"/>
<polygon fill="#000000" stroke="#000000" points="1751.9773,-188.5001 1761.9773,-185 1751.9773,-181.5001 1751.9773,-188.5001"/>
</g>
</g>
</svg>
