<?xml version="1.0" encoding="UTF-8" standalone="no"?>
<!DOCTYPE svg PUBLIC "-//W3C//DTD SVG 1.1//EN"
 "http://www.w3.org/Graphics/SVG/1.1/DTD/svg11.dtd">
<!-- Generated by graphviz version 2.40.1 (20161225.0304)
 -->
<!-- Title: dependencies Pages: 1 -->
<svg width="1250pt" height="211pt"
 viewBox="0.00 0.00 1250.00 211.00" xmlns="http://www.w3.org/2000/svg" xmlns:xlink="http://www.w3.org/1999/xlink">
<g id="graph0" class="graph" transform="scale(1 1) rotate(0) translate(4 207)">
<title>dependencies</title>
<polygon fill="#ffffff" stroke="transparent" points="-4,4 -4,-207 1246,-207 1246,4 -4,4"/>
<text text-anchor="start" x="600.0091" y="-42.4" font-family="sans-serif" font-weight="bold" font-size="14.00" fill="#000000">Legend</text>
<polygon fill="#ffffb3" stroke="transparent" points="387,-10 387,-30 407,-30 407,-10 387,-10"/>
<text text-anchor="start" x="410.629" y="-15.4" font-family="sans-serif" font-size="14.00" fill="#000000"> &#160;Declarations</text>
<polygon fill="#8dd3c7" stroke="transparent" points="500,-10 500,-30 520,-30 520,-10 500,-10"/>
<text text-anchor="start" x="523.7251" y="-15.4" font-family="sans-serif" font-size="14.00" fill="#000000"> &#160;Module</text>
<polygon fill="#80b1d3" stroke="transparent" points="586,-10 586,-30 606,-30 606,-10 586,-10"/>
<text text-anchor="start" x="609.7812" y="-15.4" font-family="sans-serif" font-size="14.00" fill="#000000"> &#160;Bootstrap</text>
<polygon fill="#fdb462" stroke="transparent" points="683,-10 683,-30 703,-30 703,-10 683,-10"/>
<text text-anchor="start" x="706.6732" y="-15.4" font-family="sans-serif" font-size="14.00" fill="#000000"> &#160;Providers</text>
<polygon fill="#fb8072" stroke="transparent" points="779,-10 779,-30 799,-30 799,-10 779,-10"/>
<text text-anchor="start" x="802.7258" y="-15.4" font-family="sans-serif" font-size="14.00" fill="#000000"> &#160;Exports</text>
<g id="clust1" class="cluster">
<title>cluster_CoursesModule</title>
<polygon fill="none" stroke="#000000" stroke-dasharray="1,5" points="8,-70 8,-195 1234,-195 1234,-70 8,-70"/>
</g>
<g id="clust2" class="cluster">
<title>cluster_CoursesModule_declarations</title>
<polygon fill="none" stroke="#000000" points="727,-78 727,-130 1226,-130 1226,-78 727,-78"/>
</g>
<g id="clust6" class="cluster">
<title>cluster_CoursesModule_imports</title>
<polygon fill="none" stroke="#000000" points="16,-78 16,-130 719,-130 719,-78 16,-78"/>
</g>
<!-- AddCourseComponent -->
<g id="node1" class="node">
<title>AddCourseComponent</title>
<polygon fill="#ffffb3" stroke="#000000" points="1217.5954,-122 1072.4046,-122 1072.4046,-86 1217.5954,-86 1217.5954,-122"/>
<text text-anchor="middle" x="1145" y="-99.8" font-family="Times,serif" font-size="14.00" fill="#000000">AddCourseComponent</text>
</g>
<!-- CoursesModule -->
<g id="node4" class="node">
<title>CoursesModule</title>
<polygon fill="#8dd3c7" stroke="#000000" points="646.1514,-187 643.1514,-191 622.1514,-191 619.1514,-187 541.8486,-187 541.8486,-151 646.1514,-151 646.1514,-187"/>
<text text-anchor="middle" x="594" y="-164.8" font-family="Times,serif" font-size="14.00" fill="#000000">CoursesModule</text>
</g>
<!-- AddCourseComponent&#45;&gt;CoursesModule -->
<g id="edge1" class="edge">
<title>AddCourseComponent&#45;&gt;CoursesModule</title>
<path fill="none" stroke="#000000" d="M1145,-122.2921C1145,-144.2057 1145,-178 1145,-178 1145,-178 656.3335,-178 656.3335,-178"/>
<polygon fill="#000000" stroke="#000000" points="656.3335,-174.5001 646.3335,-178 656.3335,-181.5001 656.3335,-174.5001"/>
</g>
<!-- EditCourseComponent -->
<g id="node2" class="node">
<title>EditCourseComponent</title>
<polygon fill="#ffffb3" stroke="#000000" points="1054.323,-122 909.677,-122 909.677,-86 1054.323,-86 1054.323,-122"/>
<text text-anchor="middle" x="982" y="-99.8" font-family="Times,serif" font-size="14.00" fill="#000000">EditCourseComponent</text>
</g>
<!-- EditCourseComponent&#45;&gt;CoursesModule -->
<g id="edge2" class="edge">
<title>EditCourseComponent&#45;&gt;CoursesModule</title>
<path fill="none" stroke="#000000" d="M982,-122.1061C982,-141.3391 982,-169 982,-169 982,-169 656.3274,-169 656.3274,-169"/>
<polygon fill="#000000" stroke="#000000" points="656.3274,-165.5001 646.3274,-169 656.3274,-172.5001 656.3274,-165.5001"/>
</g>
<!-- ViewCoursesComponent -->
<g id="node3" class="node">
<title>ViewCoursesComponent</title>
<polygon fill="#ffffb3" stroke="#000000" points="891.252,-122 734.748,-122 734.748,-86 891.252,-86 891.252,-122"/>
<text text-anchor="middle" x="813" y="-99.8" font-family="Times,serif" font-size="14.00" fill="#000000">ViewCoursesComponent</text>
</g>
<!-- ViewCoursesComponent&#45;&gt;CoursesModule -->
<g id="edge3" class="edge">
<title>ViewCoursesComponent&#45;&gt;CoursesModule</title>
<path fill="none" stroke="#000000" d="M813,-122.027C813,-138.3976 813,-160 813,-160 813,-160 656.1777,-160 656.1777,-160"/>
<polygon fill="#000000" stroke="#000000" points="656.1778,-156.5001 646.1777,-160 656.1777,-163.5001 656.1778,-156.5001"/>
</g>
<!-- CommonModule -->
<g id="node5" class="node">
<title>CommonModule</title>
<polygon fill="#8dd3c7" stroke="#000000" points="710.6681,-122 707.6681,-126 686.6681,-126 683.6681,-122 599.3319,-122 599.3319,-86 710.6681,-86 710.6681,-122"/>
<text text-anchor="middle" x="655" y="-99.8" font-family="Times,serif" font-size="14.00" fill="#000000">CommonModule</text>
</g>
<!-- CommonModule&#45;&gt;CoursesModule -->
<g id="edge4" class="edge">
<title>CommonModule&#45;&gt;CoursesModule</title>
<path fill="none" stroke="#000000" d="M622.7458,-122.1061C622.7458,-122.1061 622.7458,-140.991 622.7458,-140.991"/>
<polygon fill="#000000" stroke="#000000" points="619.2459,-140.9909 622.7458,-150.991 626.2459,-140.991 619.2459,-140.9909"/>
</g>
<!-- FormsModule -->
<g id="node6" class="node">
<title>FormsModule</title>
<polygon fill="#8dd3c7" stroke="#000000" points="581.8288,-122 578.8288,-126 557.8288,-126 554.8288,-122 486.1712,-122 486.1712,-86 581.8288,-86 581.8288,-122"/>
<text text-anchor="middle" x="534" y="-99.8" font-family="Times,serif" font-size="14.00" fill="#000000">FormsModule</text>
</g>
<!-- FormsModule&#45;&gt;CoursesModule -->
<g id="edge5" class="edge">
<title>FormsModule&#45;&gt;CoursesModule</title>
<path fill="none" stroke="#000000" d="M561.6694,-122.1061C561.6694,-122.1061 561.6694,-140.991 561.6694,-140.991"/>
<polygon fill="#000000" stroke="#000000" points="558.1694,-140.9909 561.6694,-150.991 565.1694,-140.991 558.1694,-140.9909"/>
</g>
<!-- MaterialModule -->
<g id="node7" class="node">
<title>MaterialModule</title>
<polygon fill="#8dd3c7" stroke="#000000" points="468.4706,-122 465.4706,-126 444.4706,-126 441.4706,-122 361.5294,-122 361.5294,-86 468.4706,-86 468.4706,-122"/>
<text text-anchor="middle" x="415" y="-99.8" font-family="Times,serif" font-size="14.00" fill="#000000">MaterialModule</text>
</g>
<!-- MaterialModule&#45;&gt;CoursesModule -->
<g id="edge6" class="edge">
<title>MaterialModule&#45;&gt;CoursesModule</title>
<path fill="none" stroke="#000000" d="M415,-122.027C415,-138.3976 415,-160 415,-160 415,-160 531.7446,-160 531.7446,-160"/>
<polygon fill="#000000" stroke="#000000" points="531.7446,-163.5001 541.7446,-160 531.7446,-156.5001 531.7446,-163.5001"/>
</g>
<!-- BrowserAnimationsModule -->
<g id="node8" class="node">
<title>BrowserAnimationsModule</title>
<polygon fill="#8dd3c7" stroke="#000000" points="343.3019,-122 340.3019,-126 319.3019,-126 316.3019,-122 170.6981,-122 170.6981,-86 343.3019,-86 343.3019,-122"/>
<text text-anchor="middle" x="257" y="-99.8" font-family="Times,serif" font-size="14.00" fill="#000000">BrowserAnimationsModule</text>
</g>
<!-- BrowserAnimationsModule&#45;&gt;CoursesModule -->
<g id="edge7" class="edge">
<title>BrowserAnimationsModule&#45;&gt;CoursesModule</title>
<path fill="none" stroke="#000000" d="M257,-122.1061C257,-141.3391 257,-169 257,-169 257,-169 531.7135,-169 531.7135,-169"/>
<polygon fill="#000000" stroke="#000000" points="531.7135,-172.5001 541.7135,-169 531.7135,-165.5001 531.7135,-172.5001"/>
</g>
<!-- AppRoutingModule -->
<g id="node9" class="node">
<title>AppRoutingModule</title>
<polygon fill="#8dd3c7" stroke="#000000" points="152.2744,-122 149.2744,-126 128.2744,-126 125.2744,-122 23.7256,-122 23.7256,-86 152.2744,-86 152.2744,-122"/>
<text text-anchor="middle" x="88" y="-99.8" font-family="Times,serif" font-size="14.00" fill="#000000">AppRoutingModule</text>
</g>
<!-- AppRoutingModule&#45;&gt;CoursesModule -->
<g id="edge8" class="edge">
<title>AppRoutingModule&#45;&gt;CoursesModule</title>
<path fill="none" stroke="#000000" d="M88,-122.2921C88,-144.2057 88,-178 88,-178 88,-178 531.7549,-178 531.7549,-178"/>
<polygon fill="#000000" stroke="#000000" points="531.755,-181.5001 541.7549,-178 531.7549,-174.5001 531.755,-181.5001"/>
</g>
</g>
</svg>
