<?xml version="1.0" encoding="UTF-8" standalone="no"?>
<!DOCTYPE svg PUBLIC "-//W3C//DTD SVG 1.1//EN"
 "http://www.w3.org/Graphics/SVG/1.1/DTD/svg11.dtd">
<!-- Generated by graphviz version 2.40.1 (20161225.0304)
 -->
<!-- Title: dependencies Pages: 1 -->
<svg width="1473pt" height="211pt"
 viewBox="0.00 0.00 1473.00 211.00" xmlns="http://www.w3.org/2000/svg" xmlns:xlink="http://www.w3.org/1999/xlink">
<g id="graph0" class="graph" transform="scale(1 1) rotate(0) translate(4 207)">
<title>dependencies</title>
<polygon fill="#ffffff" stroke="transparent" points="-4,4 -4,-207 1469,-207 1469,4 -4,4"/>
<text text-anchor="start" x="711.5091" y="-42.4" font-family="sans-serif" font-weight="bold" font-size="14.00" fill="#000000">Legend</text>
<polygon fill="#ffffb3" stroke="transparent" points="498.5,-10 498.5,-30 518.5,-30 518.5,-10 498.5,-10"/>
<text text-anchor="start" x="522.129" y="-15.4" font-family="sans-serif" font-size="14.00" fill="#000000"> &#160;Declarations</text>
<polygon fill="#8dd3c7" stroke="transparent" points="611.5,-10 611.5,-30 631.5,-30 631.5,-10 611.5,-10"/>
<text text-anchor="start" x="635.2251" y="-15.4" font-family="sans-serif" font-size="14.00" fill="#000000"> &#160;Module</text>
<polygon fill="#80b1d3" stroke="transparent" points="697.5,-10 697.5,-30 717.5,-30 717.5,-10 697.5,-10"/>
<text text-anchor="start" x="721.2812" y="-15.4" font-family="sans-serif" font-size="14.00" fill="#000000"> &#160;Bootstrap</text>
<polygon fill="#fdb462" stroke="transparent" points="794.5,-10 794.5,-30 814.5,-30 814.5,-10 794.5,-10"/>
<text text-anchor="start" x="818.1732" y="-15.4" font-family="sans-serif" font-size="14.00" fill="#000000"> &#160;Providers</text>
<polygon fill="#fb8072" stroke="transparent" points="890.5,-10 890.5,-30 910.5,-30 910.5,-10 890.5,-10"/>
<text text-anchor="start" x="914.2258" y="-15.4" font-family="sans-serif" font-size="14.00" fill="#000000"> &#160;Exports</text>
<g id="clust1" class="cluster">
<title>cluster_ProfessorsModule</title>
<polygon fill="none" stroke="#000000" stroke-dasharray="1,5" points="8,-70 8,-195 1457,-195 1457,-70 8,-70"/>
</g>
<g id="clust2" class="cluster">
<title>cluster_ProfessorsModule_declarations</title>
<polygon fill="none" stroke="#000000" points="727,-78 727,-130 1449,-130 1449,-78 727,-78"/>
</g>
<g id="clust7" class="cluster">
<title>cluster_ProfessorsModule_imports</title>
<polygon fill="none" stroke="#000000" points="16,-78 16,-130 719,-130 719,-78 16,-78"/>
</g>
<!-- AddProfessorComponent -->
<g id="node1" class="node">
<title>AddProfessorComponent</title>
<polygon fill="#ffffb3" stroke="#000000" points="1441.3075,-122 1282.6925,-122 1282.6925,-86 1441.3075,-86 1441.3075,-122"/>
<text text-anchor="middle" x="1362" y="-99.8" font-family="Times,serif" font-size="14.00" fill="#000000">AddProfessorComponent</text>
</g>
<!-- ProfessorsModule -->
<g id="node5" class="node">
<title>ProfessorsModule</title>
<polygon fill="#8dd3c7" stroke="#000000" points="713.8627,-187 710.8627,-191 689.8627,-191 686.8627,-187 596.1373,-187 596.1373,-151 713.8627,-151 713.8627,-187"/>
<text text-anchor="middle" x="655" y="-164.8" font-family="Times,serif" font-size="14.00" fill="#000000">ProfessorsModule</text>
</g>
<!-- AddProfessorComponent&#45;&gt;ProfessorsModule -->
<g id="edge1" class="edge">
<title>AddProfessorComponent&#45;&gt;ProfessorsModule</title>
<path fill="none" stroke="#000000" d="M1362,-122.0109C1362,-144.4852 1362,-180 1362,-180 1362,-180 724.0624,-180 724.0624,-180"/>
<polygon fill="#000000" stroke="#000000" points="724.0624,-176.5001 714.0624,-180 724.0623,-183.5001 724.0624,-176.5001"/>
</g>
<!-- EditProfessorComponent -->
<g id="node2" class="node">
<title>EditProfessorComponent</title>
<polygon fill="#ffffb3" stroke="#000000" points="1264.5351,-122 1107.4649,-122 1107.4649,-86 1264.5351,-86 1264.5351,-122"/>
<text text-anchor="middle" x="1186" y="-99.8" font-family="Times,serif" font-size="14.00" fill="#000000">EditProfessorComponent</text>
</g>
<!-- EditProfessorComponent&#45;&gt;ProfessorsModule -->
<g id="edge2" class="edge">
<title>EditProfessorComponent&#45;&gt;ProfessorsModule</title>
<path fill="none" stroke="#000000" d="M1186,-122.1289C1186,-142.5724 1186,-173 1186,-173 1186,-173 724.1107,-173 724.1107,-173"/>
<polygon fill="#000000" stroke="#000000" points="724.1108,-169.5001 714.1107,-173 724.1107,-176.5001 724.1108,-169.5001"/>
</g>
<!-- ViewProfessorsComponent -->
<g id="node3" class="node">
<title>ViewProfessorsComponent</title>
<polygon fill="#ffffb3" stroke="#000000" points="1088.9636,-122 919.0364,-122 919.0364,-86 1088.9636,-86 1088.9636,-122"/>
<text text-anchor="middle" x="1004" y="-99.8" font-family="Times,serif" font-size="14.00" fill="#000000">ViewProfessorsComponent</text>
</g>
<!-- ViewProfessorsComponent&#45;&gt;ProfessorsModule -->
<g id="edge3" class="edge">
<title>ViewProfessorsComponent&#45;&gt;ProfessorsModule</title>
<path fill="none" stroke="#000000" d="M1004,-122.2667C1004,-140.5552 1004,-166 1004,-166 1004,-166 724.2031,-166 724.2031,-166"/>
<polygon fill="#000000" stroke="#000000" points="724.2031,-162.5001 714.2031,-166 724.2031,-169.5001 724.2031,-162.5001"/>
</g>
<!-- AddRestrictionComponent -->
<g id="node4" class="node">
<title>AddRestrictionComponent</title>
<polygon fill="#ffffb3" stroke="#000000" points="901.3724,-122 734.6276,-122 734.6276,-86 901.3724,-86 901.3724,-122"/>
<text text-anchor="middle" x="818" y="-99.8" font-family="Times,serif" font-size="14.00" fill="#000000">AddRestrictionComponent</text>
</g>
<!-- AddRestrictionComponent&#45;&gt;ProfessorsModule -->
<g id="edge4" class="edge">
<title>AddRestrictionComponent&#45;&gt;ProfessorsModule</title>
<path fill="none" stroke="#000000" d="M818,-122.0091C818,-138.0494 818,-159 818,-159 818,-159 724.3078,-159 724.3078,-159"/>
<polygon fill="#000000" stroke="#000000" points="724.3079,-155.5001 714.3078,-159 724.3078,-162.5001 724.3079,-155.5001"/>
</g>
<!-- CommonModule -->
<g id="node6" class="node">
<title>CommonModule</title>
<polygon fill="#8dd3c7" stroke="#000000" points="710.6681,-122 707.6681,-126 686.6681,-126 683.6681,-122 599.3319,-122 599.3319,-86 710.6681,-86 710.6681,-122"/>
<text text-anchor="middle" x="655" y="-99.8" font-family="Times,serif" font-size="14.00" fill="#000000">CommonModule</text>
</g>
<!-- CommonModule&#45;&gt;ProfessorsModule -->
<g id="edge5" class="edge">
<title>CommonModule&#45;&gt;ProfessorsModule</title>
<path fill="none" stroke="#000000" d="M655,-122.1061C655,-122.1061 655,-140.991 655,-140.991"/>
<polygon fill="#000000" stroke="#000000" points="651.5001,-140.9909 655,-150.991 658.5001,-140.991 651.5001,-140.9909"/>
</g>
<!-- FormsModule -->
<g id="node7" class="node">
<title>FormsModule</title>
<polygon fill="#8dd3c7" stroke="#000000" points="581.8288,-122 578.8288,-126 557.8288,-126 554.8288,-122 486.1712,-122 486.1712,-86 581.8288,-86 581.8288,-122"/>
<text text-anchor="middle" x="534" y="-99.8" font-family="Times,serif" font-size="14.00" fill="#000000">FormsModule</text>
</g>
<!-- FormsModule&#45;&gt;ProfessorsModule -->
<g id="edge6" class="edge">
<title>FormsModule&#45;&gt;ProfessorsModule</title>
<path fill="none" stroke="#000000" d="M534,-122.0091C534,-138.0494 534,-159 534,-159 534,-159 585.9179,-159 585.9179,-159"/>
<polygon fill="#000000" stroke="#000000" points="585.9179,-162.5001 595.9179,-159 585.9178,-155.5001 585.9179,-162.5001"/>
</g>
<!-- MaterialModule -->
<g id="node8" class="node">
<title>MaterialModule</title>
<polygon fill="#8dd3c7" stroke="#000000" points="468.4706,-122 465.4706,-126 444.4706,-126 441.4706,-122 361.5294,-122 361.5294,-86 468.4706,-86 468.4706,-122"/>
<text text-anchor="middle" x="415" y="-99.8" font-family="Times,serif" font-size="14.00" fill="#000000">MaterialModule</text>
</g>
<!-- MaterialModule&#45;&gt;ProfessorsModule -->
<g id="edge7" class="edge">
<title>MaterialModule&#45;&gt;ProfessorsModule</title>
<path fill="none" stroke="#000000" d="M415,-122.2667C415,-140.5552 415,-166 415,-166 415,-166 585.982,-166 585.982,-166"/>
<polygon fill="#000000" stroke="#000000" points="585.982,-169.5001 595.982,-166 585.982,-162.5001 585.982,-169.5001"/>
</g>
<!-- BrowserAnimationsModule -->
<g id="node9" class="node">
<title>BrowserAnimationsModule</title>
<polygon fill="#8dd3c7" stroke="#000000" points="343.3019,-122 340.3019,-126 319.3019,-126 316.3019,-122 170.6981,-122 170.6981,-86 343.3019,-86 343.3019,-122"/>
<text text-anchor="middle" x="257" y="-99.8" font-family="Times,serif" font-size="14.00" fill="#000000">BrowserAnimationsModule</text>
</g>
<!-- BrowserAnimationsModule&#45;&gt;ProfessorsModule -->
<g id="edge8" class="edge">
<title>BrowserAnimationsModule&#45;&gt;ProfessorsModule</title>
<path fill="none" stroke="#000000" d="M257,-122.1289C257,-142.5724 257,-173 257,-173 257,-173 585.8451,-173 585.8451,-173"/>
<polygon fill="#000000" stroke="#000000" points="585.8452,-176.5001 595.8451,-173 585.8451,-169.5001 585.8452,-176.5001"/>
</g>
<!-- AppRoutingModule -->
<g id="node10" class="node">
<title>AppRoutingModule</title>
<polygon fill="#8dd3c7" stroke="#000000" points="152.2744,-122 149.2744,-126 128.2744,-126 125.2744,-122 23.7256,-122 23.7256,-86 152.2744,-86 152.2744,-122"/>
<text text-anchor="middle" x="88" y="-99.8" font-family="Times,serif" font-size="14.00" fill="#000000">AppRoutingModule</text>
</g>
<!-- AppRoutingModule&#45;&gt;ProfessorsModule -->
<g id="edge9" class="edge">
<title>AppRoutingModule&#45;&gt;ProfessorsModule</title>
<path fill="none" stroke="#000000" d="M88,-122.0109C88,-144.4852 88,-180 88,-180 88,-180 585.9256,-180 585.9256,-180"/>
<polygon fill="#000000" stroke="#000000" points="585.9257,-183.5001 595.9256,-180 585.9256,-176.5001 585.9257,-183.5001"/>
</g>
</g>
</svg>
