<?xml version="1.0" encoding="UTF-8" standalone="no"?>
<!DOCTYPE svg PUBLIC "-//W3C//DTD SVG 1.1//EN"
 "http://www.w3.org/Graphics/SVG/1.1/DTD/svg11.dtd">
<!-- Generated by graphviz version 2.40.1 (20161225.0304)
 -->
<!-- Title: dependencies Pages: 1 -->
<svg width="1636pt" height="211pt"
 viewBox="0.00 0.00 1636.00 211.00" xmlns="http://www.w3.org/2000/svg" xmlns:xlink="http://www.w3.org/1999/xlink">
<g id="graph0" class="graph" transform="scale(1 1) rotate(0) translate(4 207)">
<title>dependencies</title>
<polygon fill="#ffffff" stroke="transparent" points="-4,4 -4,-207 1632,-207 1632,4 -4,4"/>
<text text-anchor="start" x="793.0091" y="-42.4" font-family="sans-serif" font-weight="bold" font-size="14.00" fill="#000000">Legend</text>
<polygon fill="#ffffb3" stroke="transparent" points="580,-10 580,-30 600,-30 600,-10 580,-10"/>
<text text-anchor="start" x="603.629" y="-15.4" font-family="sans-serif" font-size="14.00" fill="#000000"> &#160;Declarations</text>
<polygon fill="#8dd3c7" stroke="transparent" points="693,-10 693,-30 713,-30 713,-10 693,-10"/>
<text text-anchor="start" x="716.7251" y="-15.4" font-family="sans-serif" font-size="14.00" fill="#000000"> &#160;Module</text>
<polygon fill="#80b1d3" stroke="transparent" points="779,-10 779,-30 799,-30 799,-10 779,-10"/>
<text text-anchor="start" x="802.7812" y="-15.4" font-family="sans-serif" font-size="14.00" fill="#000000"> &#160;Bootstrap</text>
<polygon fill="#fdb462" stroke="transparent" points="876,-10 876,-30 896,-30 896,-10 876,-10"/>
<text text-anchor="start" x="899.6732" y="-15.4" font-family="sans-serif" font-size="14.00" fill="#000000"> &#160;Providers</text>
<polygon fill="#fb8072" stroke="transparent" points="972,-10 972,-30 992,-30 992,-10 972,-10"/>
<text text-anchor="start" x="995.7258" y="-15.4" font-family="sans-serif" font-size="14.00" fill="#000000"> &#160;Exports</text>
<g id="clust1" class="cluster">
<title>cluster_ProfessorsModule</title>
<polygon fill="none" stroke="#000000" stroke-dasharray="1,5" points="8,-70 8,-195 1620,-195 1620,-70 8,-70"/>
</g>
<g id="clust2" class="cluster">
<title>cluster_ProfessorsModule_declarations</title>
<polygon fill="none" stroke="#000000" points="890,-78 890,-130 1612,-130 1612,-78 890,-78"/>
</g>
<g id="clust7" class="cluster">
<title>cluster_ProfessorsModule_imports</title>
<polygon fill="none" stroke="#000000" points="16,-78 16,-130 882,-130 882,-78 16,-78"/>
</g>
<!-- AddProfessorComponent -->
<g id="node1" class="node">
<title>AddProfessorComponent</title>
<polygon fill="#ffffb3" stroke="#000000" points="1604.3075,-122 1445.6925,-122 1445.6925,-86 1604.3075,-86 1604.3075,-122"/>
<text text-anchor="middle" x="1525" y="-99.8" font-family="Times,serif" font-size="14.00" fill="#000000">AddProfessorComponent</text>
</g>
<!-- ProfessorsModule -->
<g id="node5" class="node">
<title>ProfessorsModule</title>
<polygon fill="#8dd3c7" stroke="#000000" points="815.8627,-187 812.8627,-191 791.8627,-191 788.8627,-187 698.1373,-187 698.1373,-151 815.8627,-151 815.8627,-187"/>
<text text-anchor="middle" x="757" y="-164.8" font-family="Times,serif" font-size="14.00" fill="#000000">ProfessorsModule</text>
</g>
<!-- AddProfessorComponent&#45;&gt;ProfessorsModule -->
<g id="edge1" class="edge">
<title>AddProfessorComponent&#45;&gt;ProfessorsModule</title>
<path fill="none" stroke="#000000" d="M1525,-122.0109C1525,-144.4852 1525,-180 1525,-180 1525,-180 825.9884,-180 825.9884,-180"/>
<polygon fill="#000000" stroke="#000000" points="825.9885,-176.5001 815.9884,-180 825.9884,-183.5001 825.9885,-176.5001"/>
</g>
<!-- EditProfessorComponent -->
<g id="node2" class="node">
<title>EditProfessorComponent</title>
<polygon fill="#ffffb3" stroke="#000000" points="1427.5351,-122 1270.4649,-122 1270.4649,-86 1427.5351,-86 1427.5351,-122"/>
<text text-anchor="middle" x="1349" y="-99.8" font-family="Times,serif" font-size="14.00" fill="#000000">EditProfessorComponent</text>
</g>
<!-- EditProfessorComponent&#45;&gt;ProfessorsModule -->
<g id="edge2" class="edge">
<title>EditProfessorComponent&#45;&gt;ProfessorsModule</title>
<path fill="none" stroke="#000000" d="M1349,-122.1289C1349,-142.5724 1349,-173 1349,-173 1349,-173 825.9275,-173 825.9275,-173"/>
<polygon fill="#000000" stroke="#000000" points="825.9276,-169.5001 815.9275,-173 825.9275,-176.5001 825.9276,-169.5001"/>
</g>
<!-- ViewProfessorsComponent -->
<g id="node3" class="node">
<title>ViewProfessorsComponent</title>
<polygon fill="#ffffb3" stroke="#000000" points="1251.9636,-122 1082.0364,-122 1082.0364,-86 1251.9636,-86 1251.9636,-122"/>
<text text-anchor="middle" x="1167" y="-99.8" font-family="Times,serif" font-size="14.00" fill="#000000">ViewProfessorsComponent</text>
</g>
<!-- ViewProfessorsComponent&#45;&gt;ProfessorsModule -->
<g id="edge3" class="edge">
<title>ViewProfessorsComponent&#45;&gt;ProfessorsModule</title>
<path fill="none" stroke="#000000" d="M1167,-122.2667C1167,-140.5552 1167,-166 1167,-166 1167,-166 826.1797,-166 826.1797,-166"/>
<polygon fill="#000000" stroke="#000000" points="826.1797,-162.5001 816.1797,-166 826.1796,-169.5001 826.1797,-162.5001"/>
</g>
<!-- AddRestrictionComponent -->
<g id="node4" class="node">
<title>AddRestrictionComponent</title>
<polygon fill="#ffffb3" stroke="#000000" points="1064.3724,-122 897.6276,-122 897.6276,-86 1064.3724,-86 1064.3724,-122"/>
<text text-anchor="middle" x="981" y="-99.8" font-family="Times,serif" font-size="14.00" fill="#000000">AddRestrictionComponent</text>
</g>
<!-- AddRestrictionComponent&#45;&gt;ProfessorsModule -->
<g id="edge4" class="edge">
<title>AddRestrictionComponent&#45;&gt;ProfessorsModule</title>
<path fill="none" stroke="#000000" d="M981,-122.0091C981,-138.0494 981,-159 981,-159 981,-159 826.1464,-159 826.1464,-159"/>
<polygon fill="#000000" stroke="#000000" points="826.1464,-155.5001 816.1464,-159 826.1463,-162.5001 826.1464,-155.5001"/>
</g>
<!-- CommonModule -->
<g id="node6" class="node">
<title>CommonModule</title>
<polygon fill="#8dd3c7" stroke="#000000" points="873.6681,-122 870.6681,-126 849.6681,-126 846.6681,-122 762.3319,-122 762.3319,-86 873.6681,-86 873.6681,-122"/>
<text text-anchor="middle" x="818" y="-99.8" font-family="Times,serif" font-size="14.00" fill="#000000">CommonModule</text>
</g>
<!-- CommonModule&#45;&gt;ProfessorsModule -->
<g id="edge5" class="edge">
<title>CommonModule&#45;&gt;ProfessorsModule</title>
<path fill="none" stroke="#000000" d="M789.0487,-122.1061C789.0487,-122.1061 789.0487,-140.991 789.0487,-140.991"/>
<polygon fill="#000000" stroke="#000000" points="785.5488,-140.9909 789.0487,-150.991 792.5488,-140.991 785.5488,-140.9909"/>
</g>
<!-- FormsModule -->
<g id="node7" class="node">
<title>FormsModule</title>
<polygon fill="#8dd3c7" stroke="#000000" points="744.8288,-122 741.8288,-126 720.8288,-126 717.8288,-122 649.1712,-122 649.1712,-86 744.8288,-86 744.8288,-122"/>
<text text-anchor="middle" x="697" y="-99.8" font-family="Times,serif" font-size="14.00" fill="#000000">FormsModule</text>
</g>
<!-- FormsModule&#45;&gt;ProfessorsModule -->
<g id="edge6" class="edge">
<title>FormsModule&#45;&gt;ProfessorsModule</title>
<path fill="none" stroke="#000000" d="M721.3664,-122.1061C721.3664,-122.1061 721.3664,-140.991 721.3664,-140.991"/>
<polygon fill="#000000" stroke="#000000" points="717.8665,-140.9909 721.3664,-150.991 724.8665,-140.991 717.8665,-140.9909"/>
</g>
<!-- MaterialModule -->
<g id="node8" class="node">
<title>MaterialModule</title>
<polygon fill="#8dd3c7" stroke="#000000" points="631.4706,-122 628.4706,-126 607.4706,-126 604.4706,-122 524.5294,-122 524.5294,-86 631.4706,-86 631.4706,-122"/>
<text text-anchor="middle" x="578" y="-99.8" font-family="Times,serif" font-size="14.00" fill="#000000">MaterialModule</text>
</g>
<!-- MaterialModule&#45;&gt;ProfessorsModule -->
<g id="edge7" class="edge">
<title>MaterialModule&#45;&gt;ProfessorsModule</title>
<path fill="none" stroke="#000000" d="M578,-122.0091C578,-138.0494 578,-159 578,-159 578,-159 687.8926,-159 687.8926,-159"/>
<polygon fill="#000000" stroke="#000000" points="687.8927,-162.5001 697.8926,-159 687.8926,-155.5001 687.8927,-162.5001"/>
</g>
<!-- BrowserAnimationsModule -->
<g id="node9" class="node">
<title>BrowserAnimationsModule</title>
<polygon fill="#8dd3c7" stroke="#000000" points="506.3019,-122 503.3019,-126 482.3019,-126 479.3019,-122 333.6981,-122 333.6981,-86 506.3019,-86 506.3019,-122"/>
<text text-anchor="middle" x="420" y="-99.8" font-family="Times,serif" font-size="14.00" fill="#000000">BrowserAnimationsModule</text>
</g>
<!-- BrowserAnimationsModule&#45;&gt;ProfessorsModule -->
<g id="edge8" class="edge">
<title>BrowserAnimationsModule&#45;&gt;ProfessorsModule</title>
<path fill="none" stroke="#000000" d="M420,-122.2667C420,-140.5552 420,-166 420,-166 420,-166 687.9134,-166 687.9134,-166"/>
<polygon fill="#000000" stroke="#000000" points="687.9135,-169.5001 697.9134,-166 687.9134,-162.5001 687.9135,-169.5001"/>
</g>
<!-- AppRoutingModule -->
<g id="node10" class="node">
<title>AppRoutingModule</title>
<polygon fill="#8dd3c7" stroke="#000000" points="315.2744,-122 312.2744,-126 291.2744,-126 288.2744,-122 186.7256,-122 186.7256,-86 315.2744,-86 315.2744,-122"/>
<text text-anchor="middle" x="251" y="-99.8" font-family="Times,serif" font-size="14.00" fill="#000000">AppRoutingModule</text>
</g>
<!-- AppRoutingModule&#45;&gt;ProfessorsModule -->
<g id="edge9" class="edge">
<title>AppRoutingModule&#45;&gt;ProfessorsModule</title>
<path fill="none" stroke="#000000" d="M251,-122.1289C251,-142.5724 251,-173 251,-173 251,-173 687.9651,-173 687.9651,-173"/>
<polygon fill="#000000" stroke="#000000" points="687.9651,-176.5001 697.9651,-173 687.965,-169.5001 687.9651,-176.5001"/>
</g>
<!-- FlashMessagesModule -->
<g id="node11" class="node">
<title>FlashMessagesModule</title>
<polygon fill="#8dd3c7" stroke="#000000" points="168.3047,-122 165.3047,-126 144.3047,-126 141.3047,-122 23.6953,-122 23.6953,-86 168.3047,-86 168.3047,-122"/>
<text text-anchor="middle" x="96" y="-99.8" font-family="Times,serif" font-size="14.00" fill="#000000">FlashMessagesModule</text>
</g>
<!-- FlashMessagesModule&#45;&gt;ProfessorsModule -->
<g id="edge10" class="edge">
<title>FlashMessagesModule&#45;&gt;ProfessorsModule</title>
<path fill="none" stroke="#000000" d="M96,-122.0109C96,-144.4852 96,-180 96,-180 96,-180 688.0501,-180 688.0501,-180"/>
<polygon fill="#000000" stroke="#000000" points="688.0501,-183.5001 698.0501,-180 688.0501,-176.5001 688.0501,-183.5001"/>
</g>
</g>
</svg>
