<?xml version="1.0" encoding="UTF-8" standalone="no"?>
<!DOCTYPE svg PUBLIC "-//W3C//DTD SVG 1.1//EN"
 "http://www.w3.org/Graphics/SVG/1.1/DTD/svg11.dtd">
<!-- Generated by graphviz version 2.40.1 (20161225.0304)
 -->
<!-- Title: dependencies Pages: 1 -->
<svg width="1045pt" height="211pt"
 viewBox="0.00 0.00 1045.00 211.00" xmlns="http://www.w3.org/2000/svg" xmlns:xlink="http://www.w3.org/1999/xlink">
<g id="graph0" class="graph" transform="scale(1 1) rotate(0) translate(4 207)">
<title>dependencies</title>
<polygon fill="#ffffff" stroke="transparent" points="-4,4 -4,-207 1041,-207 1041,4 -4,4"/>
<text text-anchor="start" x="497.5091" y="-42.4" font-family="sans-serif" font-weight="bold" font-size="14.00" fill="#000000">Legend</text>
<polygon fill="#ffffb3" stroke="transparent" points="284.5,-10 284.5,-30 304.5,-30 304.5,-10 284.5,-10"/>
<text text-anchor="start" x="308.129" y="-15.4" font-family="sans-serif" font-size="14.00" fill="#000000"> &#160;Declarations</text>
<polygon fill="#8dd3c7" stroke="transparent" points="397.5,-10 397.5,-30 417.5,-30 417.5,-10 397.5,-10"/>
<text text-anchor="start" x="421.2251" y="-15.4" font-family="sans-serif" font-size="14.00" fill="#000000"> &#160;Module</text>
<polygon fill="#80b1d3" stroke="transparent" points="483.5,-10 483.5,-30 503.5,-30 503.5,-10 483.5,-10"/>
<text text-anchor="start" x="507.2812" y="-15.4" font-family="sans-serif" font-size="14.00" fill="#000000"> &#160;Bootstrap</text>
<polygon fill="#fdb462" stroke="transparent" points="580.5,-10 580.5,-30 600.5,-30 600.5,-10 580.5,-10"/>
<text text-anchor="start" x="604.1732" y="-15.4" font-family="sans-serif" font-size="14.00" fill="#000000"> &#160;Providers</text>
<polygon fill="#fb8072" stroke="transparent" points="676.5,-10 676.5,-30 696.5,-30 696.5,-10 676.5,-10"/>
<text text-anchor="start" x="700.2258" y="-15.4" font-family="sans-serif" font-size="14.00" fill="#000000"> &#160;Exports</text>
<g id="clust1" class="cluster">
<title>cluster_HomeModule</title>
<polygon fill="none" stroke="#000000" stroke-dasharray="1,5" points="8,-70 8,-195 1029,-195 1029,-70 8,-70"/>
</g>
<g id="clust2" class="cluster">
<title>cluster_HomeModule_declarations</title>
<polygon fill="none" stroke="#000000" points="889,-78 889,-130 1021,-130 1021,-78 889,-78"/>
</g>
<g id="clust4" class="cluster">
<title>cluster_HomeModule_imports</title>
<polygon fill="none" stroke="#000000" points="16,-78 16,-130 881,-130 881,-78 16,-78"/>
</g>
<!-- HomeComponent -->
<g id="node1" class="node">
<title>HomeComponent</title>
<polygon fill="#ffffb3" stroke="#000000" points="1012.5451,-122 897.4549,-122 897.4549,-86 1012.5451,-86 1012.5451,-122"/>
<text text-anchor="middle" x="955" y="-99.8" font-family="Times,serif" font-size="14.00" fill="#000000">HomeComponent</text>
</g>
<!-- HomeModule -->
<g id="node2" class="node">
<title>HomeModule</title>
<polygon fill="#8dd3c7" stroke="#000000" points="623.7619,-187 620.7619,-191 599.7619,-191 596.7619,-187 530.2381,-187 530.2381,-151 623.7619,-151 623.7619,-187"/>
<text text-anchor="middle" x="577" y="-164.8" font-family="Times,serif" font-size="14.00" fill="#000000">HomeModule</text>
</g>
<!-- HomeComponent&#45;&gt;HomeModule -->
<g id="edge1" class="edge">
<title>HomeComponent&#45;&gt;HomeModule</title>
<path fill="none" stroke="#000000" d="M955,-122.2921C955,-144.2057 955,-178 955,-178 955,-178 634.1097,-178 634.1097,-178"/>
<polygon fill="#000000" stroke="#000000" points="634.1097,-174.5001 624.1097,-178 634.1096,-181.5001 634.1097,-174.5001"/>
</g>
<!-- CommonModule -->
<g id="node3" class="node">
<title>CommonModule</title>
<polygon fill="#8dd3c7" stroke="#000000" points="872.6681,-122 869.6681,-126 848.6681,-126 845.6681,-122 761.3319,-122 761.3319,-86 872.6681,-86 872.6681,-122"/>
<text text-anchor="middle" x="817" y="-99.8" font-family="Times,serif" font-size="14.00" fill="#000000">CommonModule</text>
</g>
<!-- CommonModule&#45;&gt;HomeModule -->
<g id="edge2" class="edge">
<title>CommonModule&#45;&gt;HomeModule</title>
<path fill="none" stroke="#000000" d="M817,-122.1061C817,-141.3391 817,-169 817,-169 817,-169 633.8442,-169 633.8442,-169"/>
<polygon fill="#000000" stroke="#000000" points="633.8442,-165.5001 623.8442,-169 633.8441,-172.5001 633.8442,-165.5001"/>
</g>
<!-- FormsModule -->
<g id="node4" class="node">
<title>FormsModule</title>
<polygon fill="#8dd3c7" stroke="#000000" points="743.8288,-122 740.8288,-126 719.8288,-126 716.8288,-122 648.1712,-122 648.1712,-86 743.8288,-86 743.8288,-122"/>
<text text-anchor="middle" x="696" y="-99.8" font-family="Times,serif" font-size="14.00" fill="#000000">FormsModule</text>
</g>
<!-- FormsModule&#45;&gt;HomeModule -->
<g id="edge3" class="edge">
<title>FormsModule&#45;&gt;HomeModule</title>
<path fill="none" stroke="#000000" d="M696,-122.027C696,-138.3976 696,-160 696,-160 696,-160 634.032,-160 634.032,-160"/>
<polygon fill="#000000" stroke="#000000" points="634.032,-156.5001 624.032,-160 634.0319,-163.5001 634.032,-156.5001"/>
</g>
<!-- MaterialModule -->
<g id="node5" class="node">
<title>MaterialModule</title>
<polygon fill="#8dd3c7" stroke="#000000" points="630.4706,-122 627.4706,-126 606.4706,-126 603.4706,-122 523.5294,-122 523.5294,-86 630.4706,-86 630.4706,-122"/>
<text text-anchor="middle" x="577" y="-99.8" font-family="Times,serif" font-size="14.00" fill="#000000">MaterialModule</text>
</g>
<!-- MaterialModule&#45;&gt;HomeModule -->
<g id="edge4" class="edge">
<title>MaterialModule&#45;&gt;HomeModule</title>
<path fill="none" stroke="#000000" d="M577,-122.1061C577,-122.1061 577,-140.991 577,-140.991"/>
<polygon fill="#000000" stroke="#000000" points="573.5001,-140.9909 577,-150.991 580.5001,-140.991 573.5001,-140.9909"/>
</g>
<!-- BrowserAnimationsModule -->
<g id="node6" class="node">
<title>BrowserAnimationsModule</title>
<polygon fill="#8dd3c7" stroke="#000000" points="505.3019,-122 502.3019,-126 481.3019,-126 478.3019,-122 332.6981,-122 332.6981,-86 505.3019,-86 505.3019,-122"/>
<text text-anchor="middle" x="419" y="-99.8" font-family="Times,serif" font-size="14.00" fill="#000000">BrowserAnimationsModule</text>
</g>
<!-- BrowserAnimationsModule&#45;&gt;HomeModule -->
<g id="edge5" class="edge">
<title>BrowserAnimationsModule&#45;&gt;HomeModule</title>
<path fill="none" stroke="#000000" d="M419,-122.027C419,-138.3976 419,-160 419,-160 419,-160 520.0226,-160 520.0226,-160"/>
<polygon fill="#000000" stroke="#000000" points="520.0226,-163.5001 530.0226,-160 520.0225,-156.5001 520.0226,-163.5001"/>
</g>
<!-- FlashMessagesModule -->
<g id="node7" class="node">
<title>FlashMessagesModule</title>
<polygon fill="#8dd3c7" stroke="#000000" points="315.3047,-122 312.3047,-126 291.3047,-126 288.3047,-122 170.6953,-122 170.6953,-86 315.3047,-86 315.3047,-122"/>
<text text-anchor="middle" x="243" y="-99.8" font-family="Times,serif" font-size="14.00" fill="#000000">FlashMessagesModule</text>
</g>
<!-- FlashMessagesModule&#45;&gt;HomeModule -->
<g id="edge6" class="edge">
<title>FlashMessagesModule&#45;&gt;HomeModule</title>
<path fill="none" stroke="#000000" d="M243,-122.1061C243,-141.3391 243,-169 243,-169 243,-169 520.207,-169 520.207,-169"/>
<polygon fill="#000000" stroke="#000000" points="520.2071,-172.5001 530.207,-169 520.207,-165.5001 520.2071,-172.5001"/>
</g>
<!-- AppRoutingModule -->
<g id="node8" class="node">
<title>AppRoutingModule</title>
<polygon fill="#8dd3c7" stroke="#000000" points="152.2744,-122 149.2744,-126 128.2744,-126 125.2744,-122 23.7256,-122 23.7256,-86 152.2744,-86 152.2744,-122"/>
<text text-anchor="middle" x="88" y="-99.8" font-family="Times,serif" font-size="14.00" fill="#000000">AppRoutingModule</text>
</g>
<!-- AppRoutingModule&#45;&gt;HomeModule -->
<g id="edge7" class="edge">
<title>AppRoutingModule&#45;&gt;HomeModule</title>
<path fill="none" stroke="#000000" d="M88,-122.2921C88,-144.2057 88,-178 88,-178 88,-178 520.1126,-178 520.1126,-178"/>
<polygon fill="#000000" stroke="#000000" points="520.1127,-181.5001 530.1126,-178 520.1126,-174.5001 520.1127,-181.5001"/>
</g>
</g>
</svg>
