<?xml version="1.0" encoding="UTF-8" standalone="no"?>
<!DOCTYPE svg PUBLIC "-//W3C//DTD SVG 1.1//EN"
 "http://www.w3.org/Graphics/SVG/1.1/DTD/svg11.dtd">
<!-- Generated by graphviz version 2.40.1 (20161225.0304)
 -->
<!-- Title: dependencies Pages: 1 -->
<svg width="1100pt" height="211pt"
 viewBox="0.00 0.00 1100.00 211.00" xmlns="http://www.w3.org/2000/svg" xmlns:xlink="http://www.w3.org/1999/xlink">
<g id="graph0" class="graph" transform="scale(1 1) rotate(0) translate(4 207)">
<title>dependencies</title>
<polygon fill="#ffffff" stroke="transparent" points="-4,4 -4,-207 1096,-207 1096,4 -4,4"/>
<text text-anchor="start" x="525.0091" y="-42.4" font-family="sans-serif" font-weight="bold" font-size="14.00" fill="#000000">Legend</text>
<polygon fill="#ffffb3" stroke="transparent" points="312,-10 312,-30 332,-30 332,-10 312,-10"/>
<text text-anchor="start" x="335.629" y="-15.4" font-family="sans-serif" font-size="14.00" fill="#000000"> &#160;Declarations</text>
<polygon fill="#8dd3c7" stroke="transparent" points="425,-10 425,-30 445,-30 445,-10 425,-10"/>
<text text-anchor="start" x="448.7251" y="-15.4" font-family="sans-serif" font-size="14.00" fill="#000000"> &#160;Module</text>
<polygon fill="#80b1d3" stroke="transparent" points="511,-10 511,-30 531,-30 531,-10 511,-10"/>
<text text-anchor="start" x="534.7812" y="-15.4" font-family="sans-serif" font-size="14.00" fill="#000000"> &#160;Bootstrap</text>
<polygon fill="#fdb462" stroke="transparent" points="608,-10 608,-30 628,-30 628,-10 608,-10"/>
<text text-anchor="start" x="631.6732" y="-15.4" font-family="sans-serif" font-size="14.00" fill="#000000"> &#160;Providers</text>
<polygon fill="#fb8072" stroke="transparent" points="704,-10 704,-30 724,-30 724,-10 704,-10"/>
<text text-anchor="start" x="727.7258" y="-15.4" font-family="sans-serif" font-size="14.00" fill="#000000"> &#160;Exports</text>
<g id="clust1" class="cluster">
<title>cluster_SchedulesModule</title>
<polygon fill="none" stroke="#000000" stroke-dasharray="1,5" points="8,-70 8,-195 1084,-195 1084,-70 8,-70"/>
</g>
<g id="clust2" class="cluster">
<title>cluster_SchedulesModule_declarations</title>
<polygon fill="none" stroke="#000000" points="890,-78 890,-130 1076,-130 1076,-78 890,-78"/>
</g>
<g id="clust4" class="cluster">
<title>cluster_SchedulesModule_imports</title>
<polygon fill="none" stroke="#000000" points="16,-78 16,-130 882,-130 882,-78 16,-78"/>
</g>
<!-- SchedulesTableComponent -->
<g id="node1" class="node">
<title>SchedulesTableComponent</title>
<polygon fill="#ffffb3" stroke="#000000" points="1067.9664,-122 898.0336,-122 898.0336,-86 1067.9664,-86 1067.9664,-122"/>
<text text-anchor="middle" x="983" y="-99.8" font-family="Times,serif" font-size="14.00" fill="#000000">SchedulesTableComponent</text>
</g>
<!-- SchedulesModule -->
<g id="node2" class="node">
<title>SchedulesModule</title>
<polygon fill="#8dd3c7" stroke="#000000" points="636.3118,-187 633.3118,-191 612.3118,-191 609.3118,-187 519.6882,-187 519.6882,-151 636.3118,-151 636.3118,-187"/>
<text text-anchor="middle" x="578" y="-164.8" font-family="Times,serif" font-size="14.00" fill="#000000">SchedulesModule</text>
</g>
<!-- SchedulesTableComponent&#45;&gt;SchedulesModule -->
<g id="edge1" class="edge">
<title>SchedulesTableComponent&#45;&gt;SchedulesModule</title>
<path fill="none" stroke="#000000" d="M983,-122.2921C983,-144.2057 983,-178 983,-178 983,-178 646.4579,-178 646.4579,-178"/>
<polygon fill="#000000" stroke="#000000" points="646.458,-174.5001 636.4579,-178 646.4579,-181.5001 646.458,-174.5001"/>
</g>
<!-- CommonModule -->
<g id="node3" class="node">
<title>CommonModule</title>
<polygon fill="#8dd3c7" stroke="#000000" points="873.6681,-122 870.6681,-126 849.6681,-126 846.6681,-122 762.3319,-122 762.3319,-86 873.6681,-86 873.6681,-122"/>
<text text-anchor="middle" x="818" y="-99.8" font-family="Times,serif" font-size="14.00" fill="#000000">CommonModule</text>
</g>
<!-- CommonModule&#45;&gt;SchedulesModule -->
<g id="edge2" class="edge">
<title>CommonModule&#45;&gt;SchedulesModule</title>
<path fill="none" stroke="#000000" d="M818,-122.1061C818,-141.3391 818,-169 818,-169 818,-169 646.4037,-169 646.4037,-169"/>
<polygon fill="#000000" stroke="#000000" points="646.4037,-165.5001 636.4037,-169 646.4037,-172.5001 646.4037,-165.5001"/>
</g>
<!-- FormsModule -->
<g id="node4" class="node">
<title>FormsModule</title>
<polygon fill="#8dd3c7" stroke="#000000" points="744.8288,-122 741.8288,-126 720.8288,-126 717.8288,-122 649.1712,-122 649.1712,-86 744.8288,-86 744.8288,-122"/>
<text text-anchor="middle" x="697" y="-99.8" font-family="Times,serif" font-size="14.00" fill="#000000">FormsModule</text>
</g>
<!-- FormsModule&#45;&gt;SchedulesModule -->
<g id="edge3" class="edge">
<title>FormsModule&#45;&gt;SchedulesModule</title>
<path fill="none" stroke="#000000" d="M697,-122.027C697,-138.3976 697,-160 697,-160 697,-160 646.4541,-160 646.4541,-160"/>
<polygon fill="#000000" stroke="#000000" points="646.4542,-156.5001 636.4541,-160 646.4541,-163.5001 646.4542,-156.5001"/>
</g>
<!-- MaterialModule -->
<g id="node5" class="node">
<title>MaterialModule</title>
<polygon fill="#8dd3c7" stroke="#000000" points="631.4706,-122 628.4706,-126 607.4706,-126 604.4706,-122 524.5294,-122 524.5294,-86 631.4706,-86 631.4706,-122"/>
<text text-anchor="middle" x="578" y="-99.8" font-family="Times,serif" font-size="14.00" fill="#000000">MaterialModule</text>
</g>
<!-- MaterialModule&#45;&gt;SchedulesModule -->
<g id="edge4" class="edge">
<title>MaterialModule&#45;&gt;SchedulesModule</title>
<path fill="none" stroke="#000000" d="M578,-122.1061C578,-122.1061 578,-140.991 578,-140.991"/>
<polygon fill="#000000" stroke="#000000" points="574.5001,-140.9909 578,-150.991 581.5001,-140.991 574.5001,-140.9909"/>
</g>
<!-- BrowserAnimationsModule -->
<g id="node6" class="node">
<title>BrowserAnimationsModule</title>
<polygon fill="#8dd3c7" stroke="#000000" points="506.3019,-122 503.3019,-126 482.3019,-126 479.3019,-122 333.6981,-122 333.6981,-86 506.3019,-86 506.3019,-122"/>
<text text-anchor="middle" x="420" y="-99.8" font-family="Times,serif" font-size="14.00" fill="#000000">BrowserAnimationsModule</text>
</g>
<!-- BrowserAnimationsModule&#45;&gt;SchedulesModule -->
<g id="edge5" class="edge">
<title>BrowserAnimationsModule&#45;&gt;SchedulesModule</title>
<path fill="none" stroke="#000000" d="M420,-122.027C420,-138.3976 420,-160 420,-160 420,-160 509.6155,-160 509.6155,-160"/>
<polygon fill="#000000" stroke="#000000" points="509.6156,-163.5001 519.6155,-160 509.6155,-156.5001 509.6156,-163.5001"/>
</g>
<!-- AppRoutingModule -->
<g id="node7" class="node">
<title>AppRoutingModule</title>
<polygon fill="#8dd3c7" stroke="#000000" points="315.2744,-122 312.2744,-126 291.2744,-126 288.2744,-122 186.7256,-122 186.7256,-86 315.2744,-86 315.2744,-122"/>
<text text-anchor="middle" x="251" y="-99.8" font-family="Times,serif" font-size="14.00" fill="#000000">AppRoutingModule</text>
</g>
<!-- AppRoutingModule&#45;&gt;SchedulesModule -->
<g id="edge6" class="edge">
<title>AppRoutingModule&#45;&gt;SchedulesModule</title>
<path fill="none" stroke="#000000" d="M251,-122.1061C251,-141.3391 251,-169 251,-169 251,-169 509.539,-169 509.539,-169"/>
<polygon fill="#000000" stroke="#000000" points="509.539,-172.5001 519.539,-169 509.5389,-165.5001 509.539,-172.5001"/>
</g>
<!-- FlashMessagesModule -->
<g id="node8" class="node">
<title>FlashMessagesModule</title>
<polygon fill="#8dd3c7" stroke="#000000" points="168.3047,-122 165.3047,-126 144.3047,-126 141.3047,-122 23.6953,-122 23.6953,-86 168.3047,-86 168.3047,-122"/>
<text text-anchor="middle" x="96" y="-99.8" font-family="Times,serif" font-size="14.00" fill="#000000">FlashMessagesModule</text>
</g>
<!-- FlashMessagesModule&#45;&gt;SchedulesModule -->
<g id="edge7" class="edge">
<title>FlashMessagesModule&#45;&gt;SchedulesModule</title>
<path fill="none" stroke="#000000" d="M96,-122.2921C96,-144.2057 96,-178 96,-178 96,-178 509.3792,-178 509.3792,-178"/>
<polygon fill="#000000" stroke="#000000" points="509.3793,-181.5001 519.3792,-178 509.3792,-174.5001 509.3793,-181.5001"/>
</g>
</g>
</svg>
