<?xml version="1.0" encoding="UTF-8" standalone="no"?>
<!DOCTYPE svg PUBLIC "-//W3C//DTD SVG 1.1//EN"
 "http://www.w3.org/Graphics/SVG/1.1/DTD/svg11.dtd">
<!-- Generated by graphviz version 2.40.1 (20161225.0304)
 -->
<!-- Title: dependencies Pages: 1 -->
<svg width="1100pt" height="276pt"
 viewBox="0.00 0.00 1100.00 276.00" xmlns="http://www.w3.org/2000/svg" xmlns:xlink="http://www.w3.org/1999/xlink">
<g id="graph0" class="graph" transform="scale(1 1) rotate(0) translate(4 272)">
<title>dependencies</title>
<polygon fill="#ffffff" stroke="transparent" points="-4,4 -4,-272 1096,-272 1096,4 -4,4"/>
<text text-anchor="start" x="525.0091" y="-42.4" font-family="sans-serif" font-weight="bold" font-size="14.00" fill="#000000">Legend</text>
<polygon fill="#ffffb3" stroke="transparent" points="312,-10 312,-30 332,-30 332,-10 312,-10"/>
<text text-anchor="start" x="335.629" y="-15.4" font-family="sans-serif" font-size="14.00" fill="#000000"> &#160;Declarations</text>
<polygon fill="#8dd3c7" stroke="transparent" points="425,-10 425,-30 445,-30 445,-10 425,-10"/>
<text text-anchor="start" x="448.7251" y="-15.4" font-family="sans-serif" font-size="14.00" fill="#000000"> &#160;Module</text>
<polygon fill="#80b1d3" stroke="transparent" points="511,-10 511,-30 531,-30 531,-10 511,-10"/>
<text text-anchor="start" x="534.7812" y="-15.4" font-family="sans-serif" font-size="14.00" fill="#000000"> &#160;Bootstrap</text>
<polygon fill="#fdb462" stroke="transparent" points="608,-10 608,-30 628,-30 628,-10 608,-10"/>
<text text-anchor="start" x="631.6732" y="-15.4" font-family="sans-serif" font-size="14.00" fill="#000000"> &#160;Providers</text>
<polygon fill="#fb8072" stroke="transparent" points="704,-10 704,-30 724,-30 724,-10 704,-10"/>
<text text-anchor="start" x="727.7258" y="-15.4" font-family="sans-serif" font-size="14.00" fill="#000000"> &#160;Exports</text>
<g id="clust1" class="cluster">
<title>cluster_SchedulesModule</title>
<polygon fill="none" stroke="#000000" stroke-dasharray="1,5" points="8,-70 8,-260 1084,-260 1084,-70 8,-70"/>
</g>
<g id="clust2" class="cluster">
<title>cluster_SchedulesModule_declarations</title>
<polygon fill="none" stroke="#000000" points="890,-143 890,-195 1076,-195 1076,-143 890,-143"/>
</g>
<g id="clust3" class="cluster">
<title>cluster_SchedulesModule_SchedulesTableComponent_providers</title>
<polygon fill="none" stroke="#000000" points="917,-78 917,-130 1049,-130 1049,-78 917,-78"/>
</g>
<g id="clust4" class="cluster">
<title>cluster_SchedulesModule_imports</title>
<polygon fill="none" stroke="#000000" points="16,-143 16,-195 882,-195 882,-143 16,-143"/>
</g>
<!-- SchedulesTableComponent -->
<g id="node1" class="node">
<title>SchedulesTableComponent</title>
<polygon fill="#ffffb3" stroke="#000000" points="1067.9664,-187 898.0336,-187 898.0336,-151 1067.9664,-151 1067.9664,-187"/>
<text text-anchor="middle" x="983" y="-164.8" font-family="Times,serif" font-size="14.00" fill="#000000">SchedulesTableComponent</text>
</g>
<!-- SchedulesModule -->
<g id="node2" class="node">
<title>SchedulesModule</title>
<polygon fill="#8dd3c7" stroke="#000000" points="636.3118,-252 633.3118,-256 612.3118,-256 609.3118,-252 519.6882,-252 519.6882,-216 636.3118,-216 636.3118,-252"/>
<text text-anchor="middle" x="578" y="-229.8" font-family="Times,serif" font-size="14.00" fill="#000000">SchedulesModule</text>
</g>
<!-- SchedulesTableComponent&#45;&gt;SchedulesModule -->
<g id="edge1" class="edge">
<title>SchedulesTableComponent&#45;&gt;SchedulesModule</title>
<path fill="none" stroke="#000000" d="M983,-187.2921C983,-209.2057 983,-243 983,-243 983,-243 646.4579,-243 646.4579,-243"/>
<polygon fill="#000000" stroke="#000000" points="646.458,-239.5001 636.4579,-243 646.4579,-246.5001 646.458,-239.5001"/>
</g>
<!-- ClassesStub -->
<g id="node3" class="node">
<title>ClassesStub</title>
<ellipse fill="#fdb462" stroke="#000000" cx="983" cy="-104" rx="57.9197" ry="18"/>
<text text-anchor="middle" x="983" y="-99.8" font-family="Times,serif" font-size="14.00" fill="#000000">ClassesStub</text>
</g>
<!-- ClassesStub&#45;&gt;SchedulesTableComponent -->
<g id="edge2" class="edge">
<title>ClassesStub&#45;&gt;SchedulesTableComponent</title>
<path fill="none" stroke="#000000" d="M983,-122.1061C983,-122.1061 983,-140.991 983,-140.991"/>
<polygon fill="#000000" stroke="#000000" points="979.5001,-140.9909 983,-150.991 986.5001,-140.991 979.5001,-140.9909"/>
</g>
<!-- CommonModule -->
<g id="node4" class="node">
<title>CommonModule</title>
<polygon fill="#8dd3c7" stroke="#000000" points="873.6681,-187 870.6681,-191 849.6681,-191 846.6681,-187 762.3319,-187 762.3319,-151 873.6681,-151 873.6681,-187"/>
<text text-anchor="middle" x="818" y="-164.8" font-family="Times,serif" font-size="14.00" fill="#000000">CommonModule</text>
</g>
<!-- CommonModule&#45;&gt;SchedulesModule -->
<g id="edge3" class="edge">
<title>CommonModule&#45;&gt;SchedulesModule</title>
<path fill="none" stroke="#000000" d="M818,-187.1061C818,-206.3391 818,-234 818,-234 818,-234 646.4037,-234 646.4037,-234"/>
<polygon fill="#000000" stroke="#000000" points="646.4037,-230.5001 636.4037,-234 646.4037,-237.5001 646.4037,-230.5001"/>
</g>
<!-- FormsModule -->
<g id="node5" class="node">
<title>FormsModule</title>
<polygon fill="#8dd3c7" stroke="#000000" points="744.8288,-187 741.8288,-191 720.8288,-191 717.8288,-187 649.1712,-187 649.1712,-151 744.8288,-151 744.8288,-187"/>
<text text-anchor="middle" x="697" y="-164.8" font-family="Times,serif" font-size="14.00" fill="#000000">FormsModule</text>
</g>
<!-- FormsModule&#45;&gt;SchedulesModule -->
<g id="edge4" class="edge">
<title>FormsModule&#45;&gt;SchedulesModule</title>
<path fill="none" stroke="#000000" d="M697,-187.027C697,-203.3976 697,-225 697,-225 697,-225 646.4541,-225 646.4541,-225"/>
<polygon fill="#000000" stroke="#000000" points="646.4542,-221.5001 636.4541,-225 646.4541,-228.5001 646.4542,-221.5001"/>
</g>
<!-- MaterialModule -->
<g id="node6" class="node">
<title>MaterialModule</title>
<polygon fill="#8dd3c7" stroke="#000000" points="631.4706,-187 628.4706,-191 607.4706,-191 604.4706,-187 524.5294,-187 524.5294,-151 631.4706,-151 631.4706,-187"/>
<text text-anchor="middle" x="578" y="-164.8" font-family="Times,serif" font-size="14.00" fill="#000000">MaterialModule</text>
</g>
<!-- MaterialModule&#45;&gt;SchedulesModule -->
<g id="edge5" class="edge">
<title>MaterialModule&#45;&gt;SchedulesModule</title>
<path fill="none" stroke="#000000" d="M578,-187.1061C578,-187.1061 578,-205.991 578,-205.991"/>
<polygon fill="#000000" stroke="#000000" points="574.5001,-205.9909 578,-215.991 581.5001,-205.991 574.5001,-205.9909"/>
</g>
<!-- BrowserAnimationsModule -->
<g id="node7" class="node">
<title>BrowserAnimationsModule</title>
<polygon fill="#8dd3c7" stroke="#000000" points="506.3019,-187 503.3019,-191 482.3019,-191 479.3019,-187 333.6981,-187 333.6981,-151 506.3019,-151 506.3019,-187"/>
<text text-anchor="middle" x="420" y="-164.8" font-family="Times,serif" font-size="14.00" fill="#000000">BrowserAnimationsModule</text>
</g>
<!-- BrowserAnimationsModule&#45;&gt;SchedulesModule -->
<g id="edge6" class="edge">
<title>BrowserAnimationsModule&#45;&gt;SchedulesModule</title>
<path fill="none" stroke="#000000" d="M420,-187.027C420,-203.3976 420,-225 420,-225 420,-225 509.6155,-225 509.6155,-225"/>
<polygon fill="#000000" stroke="#000000" points="509.6156,-228.5001 519.6155,-225 509.6155,-221.5001 509.6156,-228.5001"/>
</g>
<!-- AppRoutingModule -->
<g id="node8" class="node">
<title>AppRoutingModule</title>
<polygon fill="#8dd3c7" stroke="#000000" points="315.2744,-187 312.2744,-191 291.2744,-191 288.2744,-187 186.7256,-187 186.7256,-151 315.2744,-151 315.2744,-187"/>
<text text-anchor="middle" x="251" y="-164.8" font-family="Times,serif" font-size="14.00" fill="#000000">AppRoutingModule</text>
</g>
<!-- AppRoutingModule&#45;&gt;SchedulesModule -->
<g id="edge7" class="edge">
<title>AppRoutingModule&#45;&gt;SchedulesModule</title>
<path fill="none" stroke="#000000" d="M251,-187.1061C251,-206.3391 251,-234 251,-234 251,-234 509.539,-234 509.539,-234"/>
<polygon fill="#000000" stroke="#000000" points="509.539,-237.5001 519.539,-234 509.5389,-230.5001 509.539,-237.5001"/>
</g>
<!-- FlashMessagesModule -->
<g id="node9" class="node">
<title>FlashMessagesModule</title>
<polygon fill="#8dd3c7" stroke="#000000" points="168.3047,-187 165.3047,-191 144.3047,-191 141.3047,-187 23.6953,-187 23.6953,-151 168.3047,-151 168.3047,-187"/>
<text text-anchor="middle" x="96" y="-164.8" font-family="Times,serif" font-size="14.00" fill="#000000">FlashMessagesModule</text>
</g>
<!-- FlashMessagesModule&#45;&gt;SchedulesModule -->
<g id="edge8" class="edge">
<title>FlashMessagesModule&#45;&gt;SchedulesModule</title>
<path fill="none" stroke="#000000" d="M96,-187.2921C96,-209.2057 96,-243 96,-243 96,-243 509.3792,-243 509.3792,-243"/>
<polygon fill="#000000" stroke="#000000" points="509.3793,-246.5001 519.3792,-243 509.3792,-239.5001 509.3793,-246.5001"/>
</g>
</g>
</svg>
