<?xml version="1.0" encoding="UTF-8" standalone="no"?>
<!DOCTYPE svg PUBLIC "-//W3C//DTD SVG 1.1//EN"
 "http://www.w3.org/Graphics/SVG/1.1/DTD/svg11.dtd">
<!-- Generated by graphviz version 2.40.1 (20161225.0304)
 -->
<!-- Title: dependencies Pages: 1 -->
<svg width="585pt" height="211pt"
 viewBox="0.00 0.00 585.00 211.00" xmlns="http://www.w3.org/2000/svg" xmlns:xlink="http://www.w3.org/1999/xlink">
<g id="graph0" class="graph" transform="scale(1 1) rotate(0) translate(4 207)">
<title>dependencies</title>
<polygon fill="#ffffff" stroke="transparent" points="-4,4 -4,-207 581,-207 581,4 -4,4"/>
<text text-anchor="start" x="267.5091" y="-42.4" font-family="sans-serif" font-weight="bold" font-size="14.00" fill="#000000">Legend</text>
<polygon fill="#ffffb3" stroke="transparent" points="54.5,-10 54.5,-30 74.5,-30 74.5,-10 54.5,-10"/>
<text text-anchor="start" x="78.129" y="-15.4" font-family="sans-serif" font-size="14.00" fill="#000000"> &#160;Declarations</text>
<polygon fill="#8dd3c7" stroke="transparent" points="167.5,-10 167.5,-30 187.5,-30 187.5,-10 167.5,-10"/>
<text text-anchor="start" x="191.2251" y="-15.4" font-family="sans-serif" font-size="14.00" fill="#000000"> &#160;Module</text>
<polygon fill="#80b1d3" stroke="transparent" points="253.5,-10 253.5,-30 273.5,-30 273.5,-10 253.5,-10"/>
<text text-anchor="start" x="277.2812" y="-15.4" font-family="sans-serif" font-size="14.00" fill="#000000"> &#160;Bootstrap</text>
<polygon fill="#fdb462" stroke="transparent" points="350.5,-10 350.5,-30 370.5,-30 370.5,-10 350.5,-10"/>
<text text-anchor="start" x="374.1732" y="-15.4" font-family="sans-serif" font-size="14.00" fill="#000000"> &#160;Providers</text>
<polygon fill="#fb8072" stroke="transparent" points="446.5,-10 446.5,-30 466.5,-30 466.5,-10 446.5,-10"/>
<text text-anchor="start" x="470.2258" y="-15.4" font-family="sans-serif" font-size="14.00" fill="#000000"> &#160;Exports</text>
<g id="clust1" class="cluster">
<title>cluster_SemesterModule</title>
<polygon fill="none" stroke="#000000" stroke-dasharray="1,5" points="8,-70 8,-195 569,-195 569,-70 8,-70"/>
</g>
<g id="clust2" class="cluster">
<title>cluster_SemesterModule_declarations</title>
<polygon fill="none" stroke="#000000" points="389,-78 389,-130 561,-130 561,-78 389,-78"/>
</g>
<g id="clust4" class="cluster">
<title>cluster_SemesterModule_imports</title>
<polygon fill="none" stroke="#000000" points="16,-78 16,-130 381,-130 381,-78 16,-78"/>
</g>
<!-- AddSemesterComponent -->
<g id="node1" class="node">
<title>AddSemesterComponent</title>
<polygon fill="#ffffb3" stroke="#000000" points="553.252,-122 396.748,-122 396.748,-86 553.252,-86 553.252,-122"/>
<text text-anchor="middle" x="475" y="-99.8" font-family="Times,serif" font-size="14.00" fill="#000000">AddSemesterComponent</text>
</g>
<!-- SemesterModule -->
<g id="node2" class="node">
<title>SemesterModule</title>
<polygon fill="#8dd3c7" stroke="#000000" points="311.3627,-187 308.3627,-191 287.3627,-191 284.3627,-187 200.6373,-187 200.6373,-151 311.3627,-151 311.3627,-187"/>
<text text-anchor="middle" x="256" y="-164.8" font-family="Times,serif" font-size="14.00" fill="#000000">SemesterModule</text>
</g>
<!-- AddSemesterComponent&#45;&gt;SemesterModule -->
<g id="edge1" class="edge">
<title>AddSemesterComponent&#45;&gt;SemesterModule</title>
<path fill="none" stroke="#000000" d="M475,-122.1061C475,-141.3391 475,-169 475,-169 475,-169 321.5461,-169 321.5461,-169"/>
<polygon fill="#000000" stroke="#000000" points="321.5461,-165.5001 311.5461,-169 321.546,-172.5001 321.5461,-165.5001"/>
</g>
<!-- CommonModule -->
<g id="node3" class="node">
<title>CommonModule</title>
<polygon fill="#8dd3c7" stroke="#000000" points="372.6681,-122 369.6681,-126 348.6681,-126 345.6681,-122 261.3319,-122 261.3319,-86 372.6681,-86 372.6681,-122"/>
<text text-anchor="middle" x="317" y="-99.8" font-family="Times,serif" font-size="14.00" fill="#000000">CommonModule</text>
</g>
<!-- CommonModule&#45;&gt;SemesterModule -->
<g id="edge2" class="edge">
<title>CommonModule&#45;&gt;SemesterModule</title>
<path fill="none" stroke="#000000" d="M286.2988,-122.1061C286.2988,-122.1061 286.2988,-140.991 286.2988,-140.991"/>
<polygon fill="#000000" stroke="#000000" points="282.7988,-140.9909 286.2988,-150.991 289.7988,-140.991 282.7988,-140.9909"/>
</g>
<!-- FormsModule -->
<g id="node4" class="node">
<title>FormsModule</title>
<polygon fill="#8dd3c7" stroke="#000000" points="243.8288,-122 240.8288,-126 219.8288,-126 216.8288,-122 148.1712,-122 148.1712,-86 243.8288,-86 243.8288,-122"/>
<text text-anchor="middle" x="196" y="-99.8" font-family="Times,serif" font-size="14.00" fill="#000000">FormsModule</text>
</g>
<!-- FormsModule&#45;&gt;SemesterModule -->
<g id="edge3" class="edge">
<title>FormsModule&#45;&gt;SemesterModule</title>
<path fill="none" stroke="#000000" d="M222.1164,-122.1061C222.1164,-122.1061 222.1164,-140.991 222.1164,-140.991"/>
<polygon fill="#000000" stroke="#000000" points="218.6165,-140.9909 222.1164,-150.991 225.6165,-140.991 218.6165,-140.9909"/>
</g>
<!-- MaterialModule -->
<g id="node5" class="node">
<title>MaterialModule</title>
<polygon fill="#8dd3c7" stroke="#000000" points="130.4706,-122 127.4706,-126 106.4706,-126 103.4706,-122 23.5294,-122 23.5294,-86 130.4706,-86 130.4706,-122"/>
<text text-anchor="middle" x="77" y="-99.8" font-family="Times,serif" font-size="14.00" fill="#000000">MaterialModule</text>
</g>
<!-- MaterialModule&#45;&gt;SemesterModule -->
<g id="edge4" class="edge">
<title>MaterialModule&#45;&gt;SemesterModule</title>
<path fill="none" stroke="#000000" d="M77,-122.1061C77,-141.3391 77,-169 77,-169 77,-169 190.3445,-169 190.3445,-169"/>
<polygon fill="#000000" stroke="#000000" points="190.3445,-172.5001 200.3445,-169 190.3445,-165.5001 190.3445,-172.5001"/>
</g>
</g>
</svg>
