<?xml version="1.0" encoding="UTF-8" standalone="no"?>
<!DOCTYPE svg PUBLIC "-//W3C//DTD SVG 1.1//EN"
 "http://www.w3.org/Graphics/SVG/1.1/DTD/svg11.dtd">
<!-- Generated by graphviz version 2.40.1 (20161225.0304)
 -->
<!-- Title: dependencies Pages: 1 -->
<svg width="732pt" height="211pt"
 viewBox="0.00 0.00 732.00 211.00" xmlns="http://www.w3.org/2000/svg" xmlns:xlink="http://www.w3.org/1999/xlink">
<g id="graph0" class="graph" transform="scale(1 1) rotate(0) translate(4 207)">
<title>dependencies</title>
<polygon fill="#ffffff" stroke="transparent" points="-4,4 -4,-207 728,-207 728,4 -4,4"/>
<text text-anchor="start" x="341.0091" y="-42.4" font-family="sans-serif" font-weight="bold" font-size="14.00" fill="#000000">Legend</text>
<polygon fill="#ffffb3" stroke="transparent" points="128,-10 128,-30 148,-30 148,-10 128,-10"/>
<text text-anchor="start" x="151.629" y="-15.4" font-family="sans-serif" font-size="14.00" fill="#000000"> &#160;Declarations</text>
<polygon fill="#8dd3c7" stroke="transparent" points="241,-10 241,-30 261,-30 261,-10 241,-10"/>
<text text-anchor="start" x="264.7251" y="-15.4" font-family="sans-serif" font-size="14.00" fill="#000000"> &#160;Module</text>
<polygon fill="#80b1d3" stroke="transparent" points="327,-10 327,-30 347,-30 347,-10 327,-10"/>
<text text-anchor="start" x="350.7812" y="-15.4" font-family="sans-serif" font-size="14.00" fill="#000000"> &#160;Bootstrap</text>
<polygon fill="#fdb462" stroke="transparent" points="424,-10 424,-30 444,-30 444,-10 424,-10"/>
<text text-anchor="start" x="447.6732" y="-15.4" font-family="sans-serif" font-size="14.00" fill="#000000"> &#160;Providers</text>
<polygon fill="#fb8072" stroke="transparent" points="520,-10 520,-30 540,-30 540,-10 520,-10"/>
<text text-anchor="start" x="543.7258" y="-15.4" font-family="sans-serif" font-size="14.00" fill="#000000"> &#160;Exports</text>
<g id="clust1" class="cluster">
<title>cluster_SemesterModule</title>
<polygon fill="none" stroke="#000000" stroke-dasharray="1,5" points="8,-70 8,-195 716,-195 716,-70 8,-70"/>
</g>
<g id="clust2" class="cluster">
<title>cluster_SemesterModule_declarations</title>
<polygon fill="none" stroke="#000000" points="536,-78 536,-130 708,-130 708,-78 536,-78"/>
</g>
<g id="clust4" class="cluster">
<title>cluster_SemesterModule_imports</title>
<polygon fill="none" stroke="#000000" points="16,-78 16,-130 528,-130 528,-78 16,-78"/>
</g>
<!-- AddSemesterComponent -->
<g id="node1" class="node">
<title>AddSemesterComponent</title>
<polygon fill="#ffffb3" stroke="#000000" points="700.252,-122 543.748,-122 543.748,-86 700.252,-86 700.252,-122"/>
<text text-anchor="middle" x="622" y="-99.8" font-family="Times,serif" font-size="14.00" fill="#000000">AddSemesterComponent</text>
</g>
<!-- SemesterModule -->
<g id="node2" class="node">
<title>SemesterModule</title>
<polygon fill="#8dd3c7" stroke="#000000" points="398.3627,-187 395.3627,-191 374.3627,-191 371.3627,-187 287.6373,-187 287.6373,-151 398.3627,-151 398.3627,-187"/>
<text text-anchor="middle" x="343" y="-164.8" font-family="Times,serif" font-size="14.00" fill="#000000">SemesterModule</text>
</g>
<!-- AddSemesterComponent&#45;&gt;SemesterModule -->
<g id="edge1" class="edge">
<title>AddSemesterComponent&#45;&gt;SemesterModule</title>
<path fill="none" stroke="#000000" d="M622,-122.1061C622,-141.3391 622,-169 622,-169 622,-169 408.455,-169 408.455,-169"/>
<polygon fill="#000000" stroke="#000000" points="408.455,-165.5001 398.455,-169 408.455,-172.5001 408.455,-165.5001"/>
</g>
<!-- CommonModule -->
<g id="node3" class="node">
<title>CommonModule</title>
<polygon fill="#8dd3c7" stroke="#000000" points="519.6681,-122 516.6681,-126 495.6681,-126 492.6681,-122 408.3319,-122 408.3319,-86 519.6681,-86 519.6681,-122"/>
<text text-anchor="middle" x="464" y="-99.8" font-family="Times,serif" font-size="14.00" fill="#000000">CommonModule</text>
</g>
<!-- CommonModule&#45;&gt;SemesterModule -->
<g id="edge2" class="edge">
<title>CommonModule&#45;&gt;SemesterModule</title>
<path fill="none" stroke="#000000" d="M408.2692,-104C400.1952,-104 394.5477,-104 394.5477,-104 394.5477,-104 394.5477,-140.8939 394.5477,-140.8939"/>
<polygon fill="#000000" stroke="#000000" points="391.0478,-140.8938 394.5477,-150.8939 398.0478,-140.8939 391.0478,-140.8938"/>
</g>
<!-- FormsModule -->
<g id="node4" class="node">
<title>FormsModule</title>
<polygon fill="#8dd3c7" stroke="#000000" points="390.8288,-122 387.8288,-126 366.8288,-126 363.8288,-122 295.1712,-122 295.1712,-86 390.8288,-86 390.8288,-122"/>
<text text-anchor="middle" x="343" y="-99.8" font-family="Times,serif" font-size="14.00" fill="#000000">FormsModule</text>
</g>
<!-- FormsModule&#45;&gt;SemesterModule -->
<g id="edge3" class="edge">
<title>FormsModule&#45;&gt;SemesterModule</title>
<path fill="none" stroke="#000000" d="M343,-122.1061C343,-122.1061 343,-140.991 343,-140.991"/>
<polygon fill="#000000" stroke="#000000" points="339.5001,-140.9909 343,-150.991 346.5001,-140.991 339.5001,-140.9909"/>
</g>
<!-- MaterialModule -->
<g id="node5" class="node">
<title>MaterialModule</title>
<polygon fill="#8dd3c7" stroke="#000000" points="277.4706,-122 274.4706,-126 253.4706,-126 250.4706,-122 170.5294,-122 170.5294,-86 277.4706,-86 277.4706,-122"/>
<text text-anchor="middle" x="224" y="-99.8" font-family="Times,serif" font-size="14.00" fill="#000000">MaterialModule</text>
</g>
<!-- MaterialModule&#45;&gt;SemesterModule -->
<g id="edge4" class="edge">
<title>MaterialModule&#45;&gt;SemesterModule</title>
<path fill="none" stroke="#000000" d="M277.4761,-104C285.6628,-104 291.4523,-104 291.4523,-104 291.4523,-104 291.4523,-140.8939 291.4523,-140.8939"/>
<polygon fill="#000000" stroke="#000000" points="287.9524,-140.8938 291.4523,-150.8939 294.9524,-140.8939 287.9524,-140.8938"/>
</g>
<!-- AppRoutingModule -->
<g id="node6" class="node">
<title>AppRoutingModule</title>
<polygon fill="#8dd3c7" stroke="#000000" points="152.2744,-122 149.2744,-126 128.2744,-126 125.2744,-122 23.7256,-122 23.7256,-86 152.2744,-86 152.2744,-122"/>
<text text-anchor="middle" x="88" y="-99.8" font-family="Times,serif" font-size="14.00" fill="#000000">AppRoutingModule</text>
</g>
<!-- AppRoutingModule&#45;&gt;SemesterModule -->
<g id="edge5" class="edge">
<title>AppRoutingModule&#45;&gt;SemesterModule</title>
<path fill="none" stroke="#000000" d="M88,-122.1061C88,-141.3391 88,-169 88,-169 88,-169 277.3543,-169 277.3543,-169"/>
<polygon fill="#000000" stroke="#000000" points="277.3543,-172.5001 287.3543,-169 277.3542,-165.5001 277.3543,-172.5001"/>
</g>
</g>
</svg>
