<?xml version="1.0" encoding="UTF-8" standalone="no"?>
<!DOCTYPE svg PUBLIC "-//W3C//DTD SVG 1.1//EN"
 "http://www.w3.org/Graphics/SVG/1.1/DTD/svg11.dtd">
<!-- Generated by graphviz version 2.40.1 (20161225.0304)
 -->
<!-- Title: dependencies Pages: 1 -->
<svg width="1113pt" height="211pt"
 viewBox="0.00 0.00 1113.00 211.00" xmlns="http://www.w3.org/2000/svg" xmlns:xlink="http://www.w3.org/1999/xlink">
<g id="graph0" class="graph" transform="scale(1 1) rotate(0) translate(4 207)">
<title>dependencies</title>
<polygon fill="#ffffff" stroke="transparent" points="-4,4 -4,-207 1109,-207 1109,4 -4,4"/>
<text text-anchor="start" x="531.5091" y="-42.4" font-family="sans-serif" font-weight="bold" font-size="14.00" fill="#000000">Legend</text>
<polygon fill="#ffffb3" stroke="transparent" points="318.5,-10 318.5,-30 338.5,-30 338.5,-10 318.5,-10"/>
<text text-anchor="start" x="342.129" y="-15.4" font-family="sans-serif" font-size="14.00" fill="#000000"> &#160;Declarations</text>
<polygon fill="#8dd3c7" stroke="transparent" points="431.5,-10 431.5,-30 451.5,-30 451.5,-10 431.5,-10"/>
<text text-anchor="start" x="455.2251" y="-15.4" font-family="sans-serif" font-size="14.00" fill="#000000"> &#160;Module</text>
<polygon fill="#80b1d3" stroke="transparent" points="517.5,-10 517.5,-30 537.5,-30 537.5,-10 517.5,-10"/>
<text text-anchor="start" x="541.2812" y="-15.4" font-family="sans-serif" font-size="14.00" fill="#000000"> &#160;Bootstrap</text>
<polygon fill="#fdb462" stroke="transparent" points="614.5,-10 614.5,-30 634.5,-30 634.5,-10 614.5,-10"/>
<text text-anchor="start" x="638.1732" y="-15.4" font-family="sans-serif" font-size="14.00" fill="#000000"> &#160;Providers</text>
<polygon fill="#fb8072" stroke="transparent" points="710.5,-10 710.5,-30 730.5,-30 730.5,-10 710.5,-10"/>
<text text-anchor="start" x="734.2258" y="-15.4" font-family="sans-serif" font-size="14.00" fill="#000000"> &#160;Exports</text>
<g id="clust1" class="cluster">
<title>cluster_RequestsModule</title>
<polygon fill="none" stroke="#000000" stroke-dasharray="1,5" points="8,-70 8,-195 1097,-195 1097,-70 8,-70"/>
</g>
<g id="clust2" class="cluster">
<title>cluster_RequestsModule_declarations</title>
<polygon fill="none" stroke="#000000" points="727,-78 727,-130 1089,-130 1089,-78 727,-78"/>
</g>
<g id="clust5" class="cluster">
<title>cluster_RequestsModule_imports</title>
<polygon fill="none" stroke="#000000" points="16,-78 16,-130 719,-130 719,-78 16,-78"/>
</g>
<!-- RequestAccessComponent -->
<g id="node1" class="node">
<title>RequestAccessComponent</title>
<polygon fill="#ffffb3" stroke="#000000" points="1081.073,-122 914.927,-122 914.927,-86 1081.073,-86 1081.073,-122"/>
<text text-anchor="middle" x="998" y="-99.8" font-family="Times,serif" font-size="14.00" fill="#000000">RequestAccessComponent</text>
</g>
<!-- RequestsModule -->
<g id="node3" class="node">
<title>RequestsModule</title>
<polygon fill="#8dd3c7" stroke="#000000" points="589.0954,-187 586.0954,-191 565.0954,-191 562.0954,-187 478.9046,-187 478.9046,-151 589.0954,-151 589.0954,-187"/>
<text text-anchor="middle" x="534" y="-164.8" font-family="Times,serif" font-size="14.00" fill="#000000">RequestsModule</text>
</g>
<!-- RequestAccessComponent&#45;&gt;RequestsModule -->
<g id="edge1" class="edge">
<title>RequestAccessComponent&#45;&gt;RequestsModule</title>
<path fill="none" stroke="#000000" d="M998,-122.2843C998,-143.3211 998,-175 998,-175 998,-175 599.049,-175 599.049,-175"/>
<polygon fill="#000000" stroke="#000000" points="599.049,-171.5001 589.049,-175 599.049,-178.5001 599.049,-171.5001"/>
</g>
<!-- ViewRequestsComponent -->
<g id="node2" class="node">
<title>ViewRequestsComponent</title>
<polygon fill="#ffffb3" stroke="#000000" points="897.1965,-122 734.8035,-122 734.8035,-86 897.1965,-86 897.1965,-122"/>
<text text-anchor="middle" x="816" y="-99.8" font-family="Times,serif" font-size="14.00" fill="#000000">ViewRequestsComponent</text>
</g>
<!-- ViewRequestsComponent&#45;&gt;RequestsModule -->
<g id="edge2" class="edge">
<title>ViewRequestsComponent&#45;&gt;RequestsModule</title>
<path fill="none" stroke="#000000" d="M816,-122.0225C816,-139.3734 816,-163 816,-163 816,-163 599.3777,-163 599.3777,-163"/>
<polygon fill="#000000" stroke="#000000" points="599.3777,-159.5001 589.3777,-163 599.3776,-166.5001 599.3777,-159.5001"/>
</g>
<!-- CommonModule -->
<g id="node4" class="node">
<title>CommonModule</title>
<polygon fill="#8dd3c7" stroke="#000000" points="710.6681,-122 707.6681,-126 686.6681,-126 683.6681,-122 599.3319,-122 599.3319,-86 710.6681,-86 710.6681,-122"/>
<text text-anchor="middle" x="655" y="-99.8" font-family="Times,serif" font-size="14.00" fill="#000000">CommonModule</text>
</g>
<!-- CommonModule&#45;&gt;RequestsModule -->
<g id="edge3" class="edge">
<title>CommonModule&#45;&gt;RequestsModule</title>
<path fill="none" stroke="#000000" d="M599.1153,-104C591.0189,-104 585.3559,-104 585.3559,-104 585.3559,-104 585.3559,-140.8939 585.3559,-140.8939"/>
<polygon fill="#000000" stroke="#000000" points="581.856,-140.8938 585.3559,-150.8939 588.856,-140.8939 581.856,-140.8938"/>
</g>
<!-- FormsModule -->
<g id="node5" class="node">
<title>FormsModule</title>
<polygon fill="#8dd3c7" stroke="#000000" points="581.8288,-122 578.8288,-126 557.8288,-126 554.8288,-122 486.1712,-122 486.1712,-86 581.8288,-86 581.8288,-122"/>
<text text-anchor="middle" x="534" y="-99.8" font-family="Times,serif" font-size="14.00" fill="#000000">FormsModule</text>
</g>
<!-- FormsModule&#45;&gt;RequestsModule -->
<g id="edge4" class="edge">
<title>FormsModule&#45;&gt;RequestsModule</title>
<path fill="none" stroke="#000000" d="M534,-122.1061C534,-122.1061 534,-140.991 534,-140.991"/>
<polygon fill="#000000" stroke="#000000" points="530.5001,-140.9909 534,-150.991 537.5001,-140.991 530.5001,-140.9909"/>
</g>
<!-- MaterialModule -->
<g id="node6" class="node">
<title>MaterialModule</title>
<polygon fill="#8dd3c7" stroke="#000000" points="468.4706,-122 465.4706,-126 444.4706,-126 441.4706,-122 361.5294,-122 361.5294,-86 468.4706,-86 468.4706,-122"/>
<text text-anchor="middle" x="415" y="-99.8" font-family="Times,serif" font-size="14.00" fill="#000000">MaterialModule</text>
</g>
<!-- MaterialModule&#45;&gt;RequestsModule -->
<g id="edge5" class="edge">
<title>MaterialModule&#45;&gt;RequestsModule</title>
<path fill="none" stroke="#000000" d="M468.6282,-104C476.8382,-104 482.6441,-104 482.6441,-104 482.6441,-104 482.6441,-140.8939 482.6441,-140.8939"/>
<polygon fill="#000000" stroke="#000000" points="479.1442,-140.8938 482.6441,-150.8939 486.1442,-140.8939 479.1442,-140.8938"/>
</g>
<!-- BrowserAnimationsModule -->
<g id="node7" class="node">
<title>BrowserAnimationsModule</title>
<polygon fill="#8dd3c7" stroke="#000000" points="343.3019,-122 340.3019,-126 319.3019,-126 316.3019,-122 170.6981,-122 170.6981,-86 343.3019,-86 343.3019,-122"/>
<text text-anchor="middle" x="257" y="-99.8" font-family="Times,serif" font-size="14.00" fill="#000000">BrowserAnimationsModule</text>
</g>
<!-- BrowserAnimationsModule&#45;&gt;RequestsModule -->
<g id="edge6" class="edge">
<title>BrowserAnimationsModule&#45;&gt;RequestsModule</title>
<path fill="none" stroke="#000000" d="M257,-122.0225C257,-139.3734 257,-163 257,-163 257,-163 468.9425,-163 468.9425,-163"/>
<polygon fill="#000000" stroke="#000000" points="468.9426,-166.5001 478.9425,-163 468.9425,-159.5001 468.9426,-166.5001"/>
</g>
<!-- AppRoutingModule -->
<g id="node8" class="node">
<title>AppRoutingModule</title>
<polygon fill="#8dd3c7" stroke="#000000" points="152.2744,-122 149.2744,-126 128.2744,-126 125.2744,-122 23.7256,-122 23.7256,-86 152.2744,-86 152.2744,-122"/>
<text text-anchor="middle" x="88" y="-99.8" font-family="Times,serif" font-size="14.00" fill="#000000">AppRoutingModule</text>
</g>
<!-- AppRoutingModule&#45;&gt;RequestsModule -->
<g id="edge7" class="edge">
<title>AppRoutingModule&#45;&gt;RequestsModule</title>
<path fill="none" stroke="#000000" d="M88,-122.2843C88,-143.3211 88,-175 88,-175 88,-175 468.8643,-175 468.8643,-175"/>
<polygon fill="#000000" stroke="#000000" points="468.8644,-178.5001 478.8643,-175 468.8643,-171.5001 468.8644,-178.5001"/>
</g>
</g>
</svg>
