<?xml version="1.0" encoding="UTF-8" standalone="no"?>
<!DOCTYPE svg PUBLIC "-//W3C//DTD SVG 1.1//EN"
 "http://www.w3.org/Graphics/SVG/1.1/DTD/svg11.dtd">
<!-- Generated by graphviz version 2.40.1 (20161225.0304)
 -->
<!-- Title: dependencies Pages: 1 -->
<svg width="1798pt" height="211pt"
 viewBox="0.00 0.00 1798.00 211.00" xmlns="http://www.w3.org/2000/svg" xmlns:xlink="http://www.w3.org/1999/xlink">
<g id="graph0" class="graph" transform="scale(1 1) rotate(0) translate(4 207)">
<title>dependencies</title>
<polygon fill="#ffffff" stroke="transparent" points="-4,4 -4,-207 1794,-207 1794,4 -4,4"/>
<text text-anchor="start" x="874.0091" y="-42.4" font-family="sans-serif" font-weight="bold" font-size="14.00" fill="#000000">Legend</text>
<polygon fill="#ffffb3" stroke="transparent" points="661,-10 661,-30 681,-30 681,-10 661,-10"/>
<text text-anchor="start" x="684.629" y="-15.4" font-family="sans-serif" font-size="14.00" fill="#000000"> &#160;Declarations</text>
<polygon fill="#8dd3c7" stroke="transparent" points="774,-10 774,-30 794,-30 794,-10 774,-10"/>
<text text-anchor="start" x="797.7251" y="-15.4" font-family="sans-serif" font-size="14.00" fill="#000000"> &#160;Module</text>
<polygon fill="#80b1d3" stroke="transparent" points="860,-10 860,-30 880,-30 880,-10 860,-10"/>
<text text-anchor="start" x="883.7812" y="-15.4" font-family="sans-serif" font-size="14.00" fill="#000000"> &#160;Bootstrap</text>
<polygon fill="#fdb462" stroke="transparent" points="957,-10 957,-30 977,-30 977,-10 957,-10"/>
<text text-anchor="start" x="980.6732" y="-15.4" font-family="sans-serif" font-size="14.00" fill="#000000"> &#160;Providers</text>
<polygon fill="#fb8072" stroke="transparent" points="1053,-10 1053,-30 1073,-30 1073,-10 1053,-10"/>
<text text-anchor="start" x="1076.7258" y="-15.4" font-family="sans-serif" font-size="14.00" fill="#000000"> &#160;Exports</text>
<g id="clust1" class="cluster">
<title>cluster_AllocationsModule</title>
<polygon fill="none" stroke="#000000" stroke-dasharray="1,5" points="8,-70 8,-195 1782,-195 1782,-70 8,-70"/>
</g>
<g id="clust2" class="cluster">
<title>cluster_AllocationsModule_declarations</title>
<polygon fill="none" stroke="#000000" points="890,-78 890,-130 1774,-130 1774,-78 890,-78"/>
</g>
<g id="clust8" class="cluster">
<title>cluster_AllocationsModule_imports</title>
<polygon fill="none" stroke="#000000" points="16,-78 16,-130 882,-130 882,-78 16,-78"/>
</g>
<!-- AddAllocationComponent -->
<g id="node1" class="node">
<title>AddAllocationComponent</title>
<polygon fill="#ffffb3" stroke="#000000" points="1766.0378,-122 1601.9622,-122 1601.9622,-86 1766.0378,-86 1766.0378,-122"/>
<text text-anchor="middle" x="1684" y="-99.8" font-family="Times,serif" font-size="14.00" fill="#000000">AddAllocationComponent</text>
</g>
<!-- AllocationsModule -->
<g id="node6" class="node">
<title>AllocationsModule</title>
<polygon fill="#8dd3c7" stroke="#000000" points="880.0926,-187 877.0926,-191 856.0926,-191 853.0926,-187 755.9074,-187 755.9074,-151 880.0926,-151 880.0926,-187"/>
<text text-anchor="middle" x="818" y="-164.8" font-family="Times,serif" font-size="14.00" fill="#000000">AllocationsModule</text>
</g>
<!-- AddAllocationComponent&#45;&gt;AllocationsModule -->
<g id="edge1" class="edge">
<title>AddAllocationComponent&#45;&gt;AllocationsModule</title>
<path fill="none" stroke="#000000" d="M1684,-122.0908C1684,-145.1328 1684,-182 1684,-182 1684,-182 890.2806,-182 890.2806,-182"/>
<polygon fill="#000000" stroke="#000000" points="890.2806,-178.5001 880.2806,-182 890.2805,-185.5001 890.2806,-178.5001"/>
</g>
<!-- AllocationTableComponent -->
<g id="node2" class="node">
<title>AllocationTableComponent</title>
<polygon fill="#ffffb3" stroke="#000000" points="1584.3033,-122 1411.6967,-122 1411.6967,-86 1584.3033,-86 1584.3033,-122"/>
<text text-anchor="middle" x="1498" y="-99.8" font-family="Times,serif" font-size="14.00" fill="#000000">AllocationTableComponent</text>
</g>
<!-- AllocationTableComponent&#45;&gt;AllocationsModule -->
<g id="edge2" class="edge">
<title>AllocationTableComponent&#45;&gt;AllocationsModule</title>
<path fill="none" stroke="#000000" d="M1498,-122.2843C1498,-143.3211 1498,-175 1498,-175 1498,-175 890.1481,-175 890.1481,-175"/>
<polygon fill="#000000" stroke="#000000" points="890.1482,-171.5001 880.1481,-175 890.1481,-178.5001 890.1482,-171.5001"/>
</g>
<!-- EditAllocationComponent -->
<g id="node3" class="node">
<title>EditAllocationComponent</title>
<polygon fill="#ffffb3" stroke="#000000" points="1393.7646,-122 1230.2354,-122 1230.2354,-86 1393.7646,-86 1393.7646,-122"/>
<text text-anchor="middle" x="1312" y="-99.8" font-family="Times,serif" font-size="14.00" fill="#000000">EditAllocationComponent</text>
</g>
<!-- EditAllocationComponent&#45;&gt;AllocationsModule -->
<g id="edge3" class="edge">
<title>EditAllocationComponent&#45;&gt;AllocationsModule</title>
<path fill="none" stroke="#000000" d="M1312,-122.1061C1312,-141.3391 1312,-169 1312,-169 1312,-169 890.0652,-169 890.0652,-169"/>
<polygon fill="#000000" stroke="#000000" points="890.0653,-165.5001 880.0652,-169 890.0652,-172.5001 890.0653,-165.5001"/>
</g>
<!-- ClassesSchedulesComponent -->
<g id="node4" class="node">
<title>ClassesSchedulesComponent</title>
<polygon fill="#ffffb3" stroke="#000000" points="1212.0842,-122 1031.9158,-122 1031.9158,-86 1212.0842,-86 1212.0842,-122"/>
<text text-anchor="middle" x="1122" y="-99.8" font-family="Times,serif" font-size="14.00" fill="#000000">ClassesSchedulesComponent</text>
</g>
<!-- ClassesSchedulesComponent&#45;&gt;AllocationsModule -->
<g id="edge4" class="edge">
<title>ClassesSchedulesComponent&#45;&gt;AllocationsModule</title>
<path fill="none" stroke="#000000" d="M1122,-122.0225C1122,-139.3734 1122,-163 1122,-163 1122,-163 890.2525,-163 890.2525,-163"/>
<polygon fill="#000000" stroke="#000000" points="890.2525,-159.5001 880.2525,-163 890.2525,-166.5001 890.2525,-159.5001"/>
</g>
<!-- AlertsComponent -->
<g id="node5" class="node">
<title>AlertsComponent</title>
<polygon fill="#ffffb3" stroke="#000000" points="1013.5409,-122 898.4591,-122 898.4591,-86 1013.5409,-86 1013.5409,-122"/>
<text text-anchor="middle" x="956" y="-99.8" font-family="Times,serif" font-size="14.00" fill="#000000">AlertsComponent</text>
</g>
<!-- AlertsComponent&#45;&gt;AllocationsModule -->
<g id="edge5" class="edge">
<title>AlertsComponent&#45;&gt;AllocationsModule</title>
<path fill="none" stroke="#000000" d="M956,-122.2396C956,-137.5706 956,-157 956,-157 956,-157 890.1371,-157 890.1371,-157"/>
<polygon fill="#000000" stroke="#000000" points="890.1371,-153.5001 880.1371,-157 890.137,-160.5001 890.1371,-153.5001"/>
</g>
<!-- CommonModule -->
<g id="node7" class="node">
<title>CommonModule</title>
<polygon fill="#8dd3c7" stroke="#000000" points="873.6681,-122 870.6681,-126 849.6681,-126 846.6681,-122 762.3319,-122 762.3319,-86 873.6681,-86 873.6681,-122"/>
<text text-anchor="middle" x="818" y="-99.8" font-family="Times,serif" font-size="14.00" fill="#000000">CommonModule</text>
</g>
<!-- CommonModule&#45;&gt;AllocationsModule -->
<g id="edge6" class="edge">
<title>CommonModule&#45;&gt;AllocationsModule</title>
<path fill="none" stroke="#000000" d="M818,-122.1061C818,-122.1061 818,-140.991 818,-140.991"/>
<polygon fill="#000000" stroke="#000000" points="814.5001,-140.9909 818,-150.991 821.5001,-140.991 814.5001,-140.9909"/>
</g>
<!-- FormsModule -->
<g id="node8" class="node">
<title>FormsModule</title>
<polygon fill="#8dd3c7" stroke="#000000" points="744.8288,-122 741.8288,-126 720.8288,-126 717.8288,-122 649.1712,-122 649.1712,-86 744.8288,-86 744.8288,-122"/>
<text text-anchor="middle" x="697" y="-99.8" font-family="Times,serif" font-size="14.00" fill="#000000">FormsModule</text>
</g>
<!-- FormsModule&#45;&gt;AllocationsModule -->
<g id="edge7" class="edge">
<title>FormsModule&#45;&gt;AllocationsModule</title>
<path fill="none" stroke="#000000" d="M697,-122.2396C697,-137.5706 697,-157 697,-157 697,-157 745.7278,-157 745.7278,-157"/>
<polygon fill="#000000" stroke="#000000" points="745.7278,-160.5001 755.7278,-157 745.7277,-153.5001 745.7278,-160.5001"/>
</g>
<!-- MaterialModule -->
<g id="node9" class="node">
<title>MaterialModule</title>
<polygon fill="#8dd3c7" stroke="#000000" points="631.4706,-122 628.4706,-126 607.4706,-126 604.4706,-122 524.5294,-122 524.5294,-86 631.4706,-86 631.4706,-122"/>
<text text-anchor="middle" x="578" y="-99.8" font-family="Times,serif" font-size="14.00" fill="#000000">MaterialModule</text>
</g>
<!-- MaterialModule&#45;&gt;AllocationsModule -->
<g id="edge8" class="edge">
<title>MaterialModule&#45;&gt;AllocationsModule</title>
<path fill="none" stroke="#000000" d="M578,-122.0225C578,-139.3734 578,-163 578,-163 578,-163 745.8819,-163 745.8819,-163"/>
<polygon fill="#000000" stroke="#000000" points="745.882,-166.5001 755.8819,-163 745.8819,-159.5001 745.882,-166.5001"/>
</g>
<!-- BrowserAnimationsModule -->
<g id="node10" class="node">
<title>BrowserAnimationsModule</title>
<polygon fill="#8dd3c7" stroke="#000000" points="506.3019,-122 503.3019,-126 482.3019,-126 479.3019,-122 333.6981,-122 333.6981,-86 506.3019,-86 506.3019,-122"/>
<text text-anchor="middle" x="420" y="-99.8" font-family="Times,serif" font-size="14.00" fill="#000000">BrowserAnimationsModule</text>
</g>
<!-- BrowserAnimationsModule&#45;&gt;AllocationsModule -->
<g id="edge9" class="edge">
<title>BrowserAnimationsModule&#45;&gt;AllocationsModule</title>
<path fill="none" stroke="#000000" d="M420,-122.1061C420,-141.3391 420,-169 420,-169 420,-169 745.8125,-169 745.8125,-169"/>
<polygon fill="#000000" stroke="#000000" points="745.8125,-172.5001 755.8125,-169 745.8125,-165.5001 745.8125,-172.5001"/>
</g>
<!-- AppRoutingModule -->
<g id="node11" class="node">
<title>AppRoutingModule</title>
<polygon fill="#8dd3c7" stroke="#000000" points="315.2744,-122 312.2744,-126 291.2744,-126 288.2744,-122 186.7256,-122 186.7256,-86 315.2744,-86 315.2744,-122"/>
<text text-anchor="middle" x="251" y="-99.8" font-family="Times,serif" font-size="14.00" fill="#000000">AppRoutingModule</text>
</g>
<!-- AppRoutingModule&#45;&gt;AllocationsModule -->
<g id="edge10" class="edge">
<title>AppRoutingModule&#45;&gt;AllocationsModule</title>
<path fill="none" stroke="#000000" d="M251,-122.2843C251,-143.3211 251,-175 251,-175 251,-175 745.6991,-175 745.6991,-175"/>
<polygon fill="#000000" stroke="#000000" points="745.6992,-178.5001 755.6991,-175 745.6991,-171.5001 745.6992,-178.5001"/>
</g>
<!-- FlashMessagesModule -->
<g id="node12" class="node">
<title>FlashMessagesModule</title>
<polygon fill="#8dd3c7" stroke="#000000" points="168.3047,-122 165.3047,-126 144.3047,-126 141.3047,-122 23.6953,-122 23.6953,-86 168.3047,-86 168.3047,-122"/>
<text text-anchor="middle" x="96" y="-99.8" font-family="Times,serif" font-size="14.00" fill="#000000">FlashMessagesModule</text>
</g>
<!-- FlashMessagesModule&#45;&gt;AllocationsModule -->
<g id="edge11" class="edge">
<title>FlashMessagesModule&#45;&gt;AllocationsModule</title>
<path fill="none" stroke="#000000" d="M96,-122.0908C96,-145.1328 96,-182 96,-182 96,-182 745.8178,-182 745.8178,-182"/>
<polygon fill="#000000" stroke="#000000" points="745.8178,-185.5001 755.8178,-182 745.8178,-178.5001 745.8178,-185.5001"/>
</g>
</g>
</svg>
