<?xml version="1.0" encoding="UTF-8" standalone="no"?>
<!DOCTYPE svg PUBLIC "-//W3C//DTD SVG 1.1//EN"
 "http://www.w3.org/Graphics/SVG/1.1/DTD/svg11.dtd">
<!-- Generated by graphviz version 2.40.1 (20161225.0304)
 -->
<!-- Title: dependencies Pages: 1 -->
<svg width="808pt" height="284pt"
 viewBox="0.00 0.00 808.00 284.00" xmlns="http://www.w3.org/2000/svg" xmlns:xlink="http://www.w3.org/1999/xlink">
<g id="graph0" class="graph" transform="scale(1 1) rotate(0) translate(4 280)">
<title>dependencies</title>
<polygon fill="#ffffff" stroke="transparent" points="-4,4 -4,-280 804,-280 804,4 -4,4"/>
<text text-anchor="start" x="379.0091" y="-42.4" font-family="sans-serif" font-weight="bold" font-size="14.00" fill="#000000">Legend</text>
<polygon fill="#ffffb3" stroke="transparent" points="166,-10 166,-30 186,-30 186,-10 166,-10"/>
<text text-anchor="start" x="189.629" y="-15.4" font-family="sans-serif" font-size="14.00" fill="#000000"> &#160;Declarations</text>
<polygon fill="#8dd3c7" stroke="transparent" points="279,-10 279,-30 299,-30 299,-10 279,-10"/>
<text text-anchor="start" x="302.7251" y="-15.4" font-family="sans-serif" font-size="14.00" fill="#000000"> &#160;Module</text>
<polygon fill="#80b1d3" stroke="transparent" points="365,-10 365,-30 385,-30 385,-10 365,-10"/>
<text text-anchor="start" x="388.7812" y="-15.4" font-family="sans-serif" font-size="14.00" fill="#000000"> &#160;Bootstrap</text>
<polygon fill="#fdb462" stroke="transparent" points="462,-10 462,-30 482,-30 482,-10 462,-10"/>
<text text-anchor="start" x="485.6732" y="-15.4" font-family="sans-serif" font-size="14.00" fill="#000000"> &#160;Providers</text>
<polygon fill="#fb8072" stroke="transparent" points="558,-10 558,-30 578,-30 578,-10 558,-10"/>
<text text-anchor="start" x="581.7258" y="-15.4" font-family="sans-serif" font-size="14.00" fill="#000000"> &#160;Exports</text>
<g id="clust1" class="cluster">
<title>cluster_NavbarModule</title>
<polygon fill="none" stroke="#000000" stroke-dasharray="1,5" points="8,-70 8,-268 792,-268 792,-70 8,-70"/>
</g>
<g id="clust2" class="cluster">
<title>cluster_NavbarModule_declarations</title>
<polygon fill="none" stroke="#000000" points="646,-78 646,-130 784,-130 784,-78 646,-78"/>
</g>
<g id="clust4" class="cluster">
<title>cluster_NavbarModule_imports</title>
<polygon fill="none" stroke="#000000" points="16,-78 16,-130 638,-130 638,-78 16,-78"/>
</g>
<g id="clust5" class="cluster">
<title>cluster_NavbarModule_exports</title>
<polygon fill="none" stroke="#000000" points="348,-208 348,-260 490,-260 490,-208 348,-208"/>
</g>
<!-- NavbarComponent -->
<g id="node1" class="node">
<title>NavbarComponent</title>
<polygon fill="#ffffb3" stroke="#000000" points="776.0297,-122 653.9703,-122 653.9703,-86 776.0297,-86 776.0297,-122"/>
<text text-anchor="middle" x="715" y="-99.8" font-family="Times,serif" font-size="14.00" fill="#000000">NavbarComponent</text>
</g>
<!-- NavbarModule -->
<g id="node2" class="node">
<title>NavbarModule</title>
<polygon fill="#8dd3c7" stroke="#000000" points="469.2465,-187 466.2465,-191 445.2465,-191 442.2465,-187 368.7535,-187 368.7535,-151 469.2465,-151 469.2465,-187"/>
<text text-anchor="middle" x="419" y="-164.8" font-family="Times,serif" font-size="14.00" fill="#000000">NavbarModule</text>
</g>
<!-- NavbarComponent&#45;&gt;NavbarModule -->
<g id="edge1" class="edge">
<title>NavbarComponent&#45;&gt;NavbarModule</title>
<path fill="none" stroke="#000000" d="M715,-122.2843C715,-143.3211 715,-175 715,-175 715,-175 479.5479,-175 479.5479,-175"/>
<polygon fill="#000000" stroke="#000000" points="479.5479,-171.5001 469.5479,-175 479.5479,-178.5001 479.5479,-171.5001"/>
</g>
<!-- NavbarComponent  -->
<g id="node7" class="node">
<title>NavbarComponent </title>
<polygon fill="#fb8072" stroke="#000000" points="482.0288,-252 355.9712,-252 355.9712,-216 482.0288,-216 482.0288,-252"/>
<text text-anchor="middle" x="419" y="-229.8" font-family="Times,serif" font-size="14.00" fill="#000000">NavbarComponent </text>
</g>
<!-- NavbarModule&#45;&gt;NavbarComponent  -->
<g id="edge6" class="edge">
<title>NavbarModule&#45;&gt;NavbarComponent </title>
<path fill="none" stroke="#000000" stroke-dasharray="5,2" d="M419,-187.1061C419,-187.1061 419,-205.991 419,-205.991"/>
<polygon fill="#000000" stroke="#000000" points="415.5001,-205.9909 419,-215.991 422.5001,-205.991 415.5001,-205.9909"/>
</g>
<!-- MaterialModule -->
<g id="node3" class="node">
<title>MaterialModule</title>
<polygon fill="#8dd3c7" stroke="#000000" points="630.4706,-122 627.4706,-126 606.4706,-126 603.4706,-122 523.5294,-122 523.5294,-86 630.4706,-86 630.4706,-122"/>
<text text-anchor="middle" x="577" y="-99.8" font-family="Times,serif" font-size="14.00" fill="#000000">MaterialModule</text>
</g>
<!-- MaterialModule&#45;&gt;NavbarModule -->
<g id="edge2" class="edge">
<title>MaterialModule&#45;&gt;NavbarModule</title>
<path fill="none" stroke="#000000" d="M577,-122.0225C577,-139.3734 577,-163 577,-163 577,-163 479.4266,-163 479.4266,-163"/>
<polygon fill="#000000" stroke="#000000" points="479.4266,-159.5001 469.4266,-163 479.4266,-166.5001 479.4266,-159.5001"/>
</g>
<!-- BrowserAnimationsModule -->
<g id="node4" class="node">
<title>BrowserAnimationsModule</title>
<polygon fill="#8dd3c7" stroke="#000000" points="505.3019,-122 502.3019,-126 481.3019,-126 478.3019,-122 332.6981,-122 332.6981,-86 505.3019,-86 505.3019,-122"/>
<text text-anchor="middle" x="419" y="-99.8" font-family="Times,serif" font-size="14.00" fill="#000000">BrowserAnimationsModule</text>
</g>
<!-- BrowserAnimationsModule&#45;&gt;NavbarModule -->
<g id="edge3" class="edge">
<title>BrowserAnimationsModule&#45;&gt;NavbarModule</title>
<path fill="none" stroke="#000000" d="M419,-122.1061C419,-122.1061 419,-140.991 419,-140.991"/>
<polygon fill="#000000" stroke="#000000" points="415.5001,-140.9909 419,-150.991 422.5001,-140.991 415.5001,-140.9909"/>
</g>
<!-- FlashMessagesModule -->
<g id="node5" class="node">
<title>FlashMessagesModule</title>
<polygon fill="#8dd3c7" stroke="#000000" points="315.3047,-122 312.3047,-126 291.3047,-126 288.3047,-122 170.6953,-122 170.6953,-86 315.3047,-86 315.3047,-122"/>
<text text-anchor="middle" x="243" y="-99.8" font-family="Times,serif" font-size="14.00" fill="#000000">FlashMessagesModule</text>
</g>
<!-- FlashMessagesModule&#45;&gt;NavbarModule -->
<g id="edge4" class="edge">
<title>FlashMessagesModule&#45;&gt;NavbarModule</title>
<path fill="none" stroke="#000000" d="M243,-122.0225C243,-139.3734 243,-163 243,-163 243,-163 358.5655,-163 358.5655,-163"/>
<polygon fill="#000000" stroke="#000000" points="358.5655,-166.5001 368.5655,-163 358.5654,-159.5001 358.5655,-166.5001"/>
</g>
<!-- AppRoutingModule -->
<g id="node6" class="node">
<title>AppRoutingModule</title>
<polygon fill="#8dd3c7" stroke="#000000" points="152.2744,-122 149.2744,-126 128.2744,-126 125.2744,-122 23.7256,-122 23.7256,-86 152.2744,-86 152.2744,-122"/>
<text text-anchor="middle" x="88" y="-99.8" font-family="Times,serif" font-size="14.00" fill="#000000">AppRoutingModule</text>
</g>
<!-- AppRoutingModule&#45;&gt;NavbarModule -->
<g id="edge5" class="edge">
<title>AppRoutingModule&#45;&gt;NavbarModule</title>
<path fill="none" stroke="#000000" d="M88,-122.2843C88,-143.3211 88,-175 88,-175 88,-175 358.7282,-175 358.7282,-175"/>
<polygon fill="#000000" stroke="#000000" points="358.7283,-178.5001 368.7282,-175 358.7282,-171.5001 358.7283,-178.5001"/>
</g>
</g>
</svg>
