<?xml version="1.0" encoding="UTF-8" standalone="no"?>
<!DOCTYPE svg PUBLIC "-//W3C//DTD SVG 1.1//EN"
 "http://www.w3.org/Graphics/SVG/1.1/DTD/svg11.dtd">
<!-- Generated by graphviz version 2.40.1 (20161225.0304)
 -->
<!-- Title: dependencies Pages: 1 -->
<svg width="1051pt" height="284pt"
 viewBox="0.00 0.00 1051.00 284.00" xmlns="http://www.w3.org/2000/svg" xmlns:xlink="http://www.w3.org/1999/xlink">
<g id="graph0" class="graph" transform="scale(1 1) rotate(0) translate(4 280)">
<title>dependencies</title>
<polygon fill="#ffffff" stroke="transparent" points="-4,4 -4,-280 1047,-280 1047,4 -4,4"/>
<text text-anchor="start" x="500.5091" y="-42.4" font-family="sans-serif" font-weight="bold" font-size="14.00" fill="#000000">Legend</text>
<polygon fill="#ffffb3" stroke="transparent" points="287.5,-10 287.5,-30 307.5,-30 307.5,-10 287.5,-10"/>
<text text-anchor="start" x="311.129" y="-15.4" font-family="sans-serif" font-size="14.00" fill="#000000"> &#160;Declarations</text>
<polygon fill="#8dd3c7" stroke="transparent" points="400.5,-10 400.5,-30 420.5,-30 420.5,-10 400.5,-10"/>
<text text-anchor="start" x="424.2251" y="-15.4" font-family="sans-serif" font-size="14.00" fill="#000000"> &#160;Module</text>
<polygon fill="#80b1d3" stroke="transparent" points="486.5,-10 486.5,-30 506.5,-30 506.5,-10 486.5,-10"/>
<text text-anchor="start" x="510.2812" y="-15.4" font-family="sans-serif" font-size="14.00" fill="#000000"> &#160;Bootstrap</text>
<polygon fill="#fdb462" stroke="transparent" points="583.5,-10 583.5,-30 603.5,-30 603.5,-10 583.5,-10"/>
<text text-anchor="start" x="607.1732" y="-15.4" font-family="sans-serif" font-size="14.00" fill="#000000"> &#160;Providers</text>
<polygon fill="#fb8072" stroke="transparent" points="679.5,-10 679.5,-30 699.5,-30 699.5,-10 679.5,-10"/>
<text text-anchor="start" x="703.2258" y="-15.4" font-family="sans-serif" font-size="14.00" fill="#000000"> &#160;Exports</text>
<g id="clust1" class="cluster">
<title>cluster_NavbarModule</title>
<polygon fill="none" stroke="#000000" stroke-dasharray="1,5" points="8,-70 8,-268 1035,-268 1035,-70 8,-70"/>
</g>
<g id="clust2" class="cluster">
<title>cluster_NavbarModule_declarations</title>
<polygon fill="none" stroke="#000000" points="889,-78 889,-130 1027,-130 1027,-78 889,-78"/>
</g>
<g id="clust4" class="cluster">
<title>cluster_NavbarModule_imports</title>
<polygon fill="none" stroke="#000000" points="16,-78 16,-130 881,-130 881,-78 16,-78"/>
</g>
<g id="clust5" class="cluster">
<title>cluster_NavbarModule_exports</title>
<polygon fill="none" stroke="#000000" points="506,-208 506,-260 648,-260 648,-208 506,-208"/>
</g>
<!-- NavbarComponent -->
<g id="node1" class="node">
<title>NavbarComponent</title>
<polygon fill="#ffffb3" stroke="#000000" points="1019.0297,-122 896.9703,-122 896.9703,-86 1019.0297,-86 1019.0297,-122"/>
<text text-anchor="middle" x="958" y="-99.8" font-family="Times,serif" font-size="14.00" fill="#000000">NavbarComponent</text>
</g>
<!-- NavbarModule -->
<g id="node2" class="node">
<title>NavbarModule</title>
<polygon fill="#8dd3c7" stroke="#000000" points="627.2465,-187 624.2465,-191 603.2465,-191 600.2465,-187 526.7535,-187 526.7535,-151 627.2465,-151 627.2465,-187"/>
<text text-anchor="middle" x="577" y="-164.8" font-family="Times,serif" font-size="14.00" fill="#000000">NavbarModule</text>
</g>
<!-- NavbarComponent&#45;&gt;NavbarModule -->
<g id="edge1" class="edge">
<title>NavbarComponent&#45;&gt;NavbarModule</title>
<path fill="none" stroke="#000000" d="M958,-122.2921C958,-144.2057 958,-178 958,-178 958,-178 637.5939,-178 637.5939,-178"/>
<polygon fill="#000000" stroke="#000000" points="637.5939,-174.5001 627.5939,-178 637.5938,-181.5001 637.5939,-174.5001"/>
</g>
<!-- NavbarComponent  -->
<g id="node9" class="node">
<title>NavbarComponent </title>
<polygon fill="#fb8072" stroke="#000000" points="640.0288,-252 513.9712,-252 513.9712,-216 640.0288,-216 640.0288,-252"/>
<text text-anchor="middle" x="577" y="-229.8" font-family="Times,serif" font-size="14.00" fill="#000000">NavbarComponent </text>
</g>
<!-- NavbarModule&#45;&gt;NavbarComponent  -->
<g id="edge8" class="edge">
<title>NavbarModule&#45;&gt;NavbarComponent </title>
<path fill="none" stroke="#000000" stroke-dasharray="5,2" d="M577,-187.1061C577,-187.1061 577,-205.991 577,-205.991"/>
<polygon fill="#000000" stroke="#000000" points="573.5001,-205.9909 577,-215.991 580.5001,-205.991 573.5001,-205.9909"/>
</g>
<!-- CommonModule -->
<g id="node3" class="node">
<title>CommonModule</title>
<polygon fill="#8dd3c7" stroke="#000000" points="872.6681,-122 869.6681,-126 848.6681,-126 845.6681,-122 761.3319,-122 761.3319,-86 872.6681,-86 872.6681,-122"/>
<text text-anchor="middle" x="817" y="-99.8" font-family="Times,serif" font-size="14.00" fill="#000000">CommonModule</text>
</g>
<!-- CommonModule&#45;&gt;NavbarModule -->
<g id="edge2" class="edge">
<title>CommonModule&#45;&gt;NavbarModule</title>
<path fill="none" stroke="#000000" d="M817,-122.1061C817,-141.3391 817,-169 817,-169 817,-169 637.3119,-169 637.3119,-169"/>
<polygon fill="#000000" stroke="#000000" points="637.3119,-165.5001 627.3119,-169 637.3118,-172.5001 637.3119,-165.5001"/>
</g>
<!-- FormsModule -->
<g id="node4" class="node">
<title>FormsModule</title>
<polygon fill="#8dd3c7" stroke="#000000" points="743.8288,-122 740.8288,-126 719.8288,-126 716.8288,-122 648.1712,-122 648.1712,-86 743.8288,-86 743.8288,-122"/>
<text text-anchor="middle" x="696" y="-99.8" font-family="Times,serif" font-size="14.00" fill="#000000">FormsModule</text>
</g>
<!-- FormsModule&#45;&gt;NavbarModule -->
<g id="edge3" class="edge">
<title>FormsModule&#45;&gt;NavbarModule</title>
<path fill="none" stroke="#000000" d="M696,-122.027C696,-138.3976 696,-160 696,-160 696,-160 637.4667,-160 637.4667,-160"/>
<polygon fill="#000000" stroke="#000000" points="637.4667,-156.5001 627.4667,-160 637.4667,-163.5001 637.4667,-156.5001"/>
</g>
<!-- MaterialModule -->
<g id="node5" class="node">
<title>MaterialModule</title>
<polygon fill="#8dd3c7" stroke="#000000" points="630.4706,-122 627.4706,-126 606.4706,-126 603.4706,-122 523.5294,-122 523.5294,-86 630.4706,-86 630.4706,-122"/>
<text text-anchor="middle" x="577" y="-99.8" font-family="Times,serif" font-size="14.00" fill="#000000">MaterialModule</text>
</g>
<!-- MaterialModule&#45;&gt;NavbarModule -->
<g id="edge4" class="edge">
<title>MaterialModule&#45;&gt;NavbarModule</title>
<path fill="none" stroke="#000000" d="M577,-122.1061C577,-122.1061 577,-140.991 577,-140.991"/>
<polygon fill="#000000" stroke="#000000" points="573.5001,-140.9909 577,-150.991 580.5001,-140.991 573.5001,-140.9909"/>
</g>
<!-- BrowserAnimationsModule -->
<g id="node6" class="node">
<title>BrowserAnimationsModule</title>
<polygon fill="#8dd3c7" stroke="#000000" points="505.3019,-122 502.3019,-126 481.3019,-126 478.3019,-122 332.6981,-122 332.6981,-86 505.3019,-86 505.3019,-122"/>
<text text-anchor="middle" x="419" y="-99.8" font-family="Times,serif" font-size="14.00" fill="#000000">BrowserAnimationsModule</text>
</g>
<!-- BrowserAnimationsModule&#45;&gt;NavbarModule -->
<g id="edge5" class="edge">
<title>BrowserAnimationsModule&#45;&gt;NavbarModule</title>
<path fill="none" stroke="#000000" d="M419,-122.027C419,-138.3976 419,-160 419,-160 419,-160 516.5734,-160 516.5734,-160"/>
<polygon fill="#000000" stroke="#000000" points="516.5734,-163.5001 526.5734,-160 516.5734,-156.5001 516.5734,-163.5001"/>
</g>
<!-- FlashMessagesModule -->
<g id="node7" class="node">
<title>FlashMessagesModule</title>
<polygon fill="#8dd3c7" stroke="#000000" points="315.3047,-122 312.3047,-126 291.3047,-126 288.3047,-122 170.6953,-122 170.6953,-86 315.3047,-86 315.3047,-122"/>
<text text-anchor="middle" x="243" y="-99.8" font-family="Times,serif" font-size="14.00" fill="#000000">FlashMessagesModule</text>
</g>
<!-- FlashMessagesModule&#45;&gt;NavbarModule -->
<g id="edge6" class="edge">
<title>FlashMessagesModule&#45;&gt;NavbarModule</title>
<path fill="none" stroke="#000000" d="M243,-122.1061C243,-141.3391 243,-169 243,-169 243,-169 516.6352,-169 516.6352,-169"/>
<polygon fill="#000000" stroke="#000000" points="516.6352,-172.5001 526.6352,-169 516.6352,-165.5001 516.6352,-172.5001"/>
</g>
<!-- AppRoutingModule -->
<g id="node8" class="node">
<title>AppRoutingModule</title>
<polygon fill="#8dd3c7" stroke="#000000" points="152.2744,-122 149.2744,-126 128.2744,-126 125.2744,-122 23.7256,-122 23.7256,-86 152.2744,-86 152.2744,-122"/>
<text text-anchor="middle" x="88" y="-99.8" font-family="Times,serif" font-size="14.00" fill="#000000">AppRoutingModule</text>
</g>
<!-- AppRoutingModule&#45;&gt;NavbarModule -->
<g id="edge7" class="edge">
<title>AppRoutingModule&#45;&gt;NavbarModule</title>
<path fill="none" stroke="#000000" d="M88,-122.2921C88,-144.2057 88,-178 88,-178 88,-178 516.5102,-178 516.5102,-178"/>
<polygon fill="#000000" stroke="#000000" points="516.5102,-181.5001 526.5102,-178 516.5102,-174.5001 516.5102,-181.5001"/>
</g>
</g>
</svg>
